Pacifico-Light-FINAL.ufo
<glyph name="numbersign" format="1">
  <advance width="426"/>
  <unicode hex="0023"/>
  <outline>
    <contour>
      <point x="214" y="218" type="curve"/>
      <point x="231" y="259"/>
      <point x="248" y="298"/>
      <point x="265" y="338" type="curve"/>
      <point x="382" y="338" type="line"/>
      <point x="352" y="251"/>
      <point x="347" y="239"/>
      <point x="340" y="219" type="curve"/>
      <point x="318" y="219"/>
      <point x="305" y="218"/>
    </contour>
    <contour>
      <point x="80" y="-11" type="curve" smooth="yes"/>
      <point x="101" y="-11"/>
      <point x="110" y="-1"/>
      <point x="118" y="14" type="curve" smooth="yes"/>
      <point x="143" y="62"/>
      <point x="164" y="109"/>
      <point x="187" y="157" type="curve"/>
      <point x="230" y="157"/>
      <point x="276" y="158"/>
      <point x="318" y="158" type="curve"/>
      <point x="271" y="24"/>
      <point x="272" y="27"/>
      <point x="272" y="13" type="curve" smooth="yes"/>
      <point x="272" y="-4"/>
      <point x="281" y="-10"/>
      <point x="301" y="-10" type="curve" smooth="yes"/>
      <point x="320" y="-10"/>
      <point x="329" y="-1"/>
      <point x="335" y="15" type="curve" smooth="yes"/>
      <point x="355" y="63"/>
      <point x="374" y="110"/>
      <point x="392" y="158" type="curve"/>
      <point x="399" y="158" type="line" smooth="yes"/>
      <point x="444" y="158"/>
      <point x="476" y="168"/>
      <point x="476" y="206" type="curve" smooth="yes"/>
      <point x="476" y="215"/>
      <point x="469" y="219"/>
      <point x="456" y="220" type="curve" smooth="yes"/>
      <point x="413" y="220" type="line"/>
      <point x="427" y="259"/>
      <point x="441" y="298"/>
      <point x="454" y="338" type="curve" smooth="yes"/>
      <point x="463" y="338" type="line" smooth="yes"/>
      <point x="521" y="338"/>
      <point x="550" y="348"/>
      <point x="550" y="387" type="curve" smooth="yes"/>
      <point x="550" y="396"/>
      <point x="544" y="399"/>
      <point x="530" y="399" type="curve" smooth="yes"/>
      <point x="476" y="399" type="line"/>
      <point x="484" y="454"/>
      <point x="520" y="508"/>
      <point x="520" y="537" type="curve" smooth="yes"/>
      <point x="520" y="551"/>
      <point x="517" y="558"/>
      <point x="505" y="558" type="curve" smooth="yes"/>
      <point x="435" y="558"/>
      <point x="427" y="458"/>
      <point x="404" y="399" type="curve"/>
      <point x="291" y="399" type="line"/>
      <point x="302" y="427"/>
      <point x="348" y="525"/>
      <point x="348" y="535" type="curve" smooth="yes"/>
      <point x="348" y="550"/>
      <point x="346" y="556"/>
      <point x="327" y="556" type="curve" smooth="yes"/>
      <point x="305" y="556"/>
      <point x="282" y="535"/>
      <point x="273" y="512" type="curve" smooth="yes"/>
      <point x="222" y="399" type="line"/>
      <point x="159" y="399"/>
      <point x="121" y="399"/>
      <point x="121" y="367" type="curve" smooth="yes"/>
      <point x="121" y="344"/>
      <point x="134" y="338"/>
      <point x="182" y="338" type="curve" smooth="yes"/>
      <point x="195" y="338" type="line" smooth="yes"/>
      <point x="142" y="219" type="line"/>
      <point x="126" y="219" type="line" smooth="yes"/>
      <point x="81" y="219"/>
      <point x="57" y="214"/>
      <point x="57" y="188" type="curve" smooth="yes"/>
      <point x="57" y="169"/>
      <point x="88" y="159"/>
      <point x="112" y="159" type="curve" smooth="yes"/>
      <point x="115" y="159"/>
      <point x="118" y="160"/>
      <point x="121" y="160" type="curve"/>
      <point x="110" y="137"/>
      <point x="73" y="73"/>
      <point x="59" y="22" type="curve" smooth="yes"/>
      <point x="57" y="15"/>
      <point x="56" y="10"/>
      <point x="56" y="6" type="curve" smooth="yes"/>
      <point x="56" y="-8"/>
      <point x="66" y="-11"/>
    </contour>
  </outline>
</glyph>
<glyph name="parenleft" format="1">
  <advance width="470"/>
  <unicode hex="0028"/>
  <outline>
    <contour>
      <point x="355" y="-121" type="curve" smooth="yes"/>
      <point x="379" y="-121"/>
      <point x="423" y="-118"/>
      <point x="423" y="-96" type="curve" smooth="yes"/>
      <point x="423" y="-74"/>
      <point x="393" y="-81"/>
      <point x="352" y="-74" type="curve" smooth="yes"/>
      <point x="248" y="-56"/>
      <point x="207" y="33"/>
      <point x="207" y="147" type="curve" smooth="yes"/>
      <point x="207" y="298"/>
      <point x="282" y="476"/>
      <point x="425" y="579" type="curve" smooth="yes"/>
      <point x="456" y="602"/>
      <point x="472" y="621"/>
      <point x="472" y="634" type="curve" smooth="yes"/>
      <point x="472" y="642"/>
      <point x="467" y="646"/>
      <point x="456" y="646" type="curve" smooth="yes"/>
      <point x="450" y="646"/>
      <point x="443" y="645"/>
      <point x="434" y="641" type="curve" smooth="yes"/>
      <point x="245" y="556"/>
      <point x="136" y="339"/>
      <point x="136" y="140" type="curve" smooth="yes"/>
      <point x="136" y="-14"/>
      <point x="214" y="-121"/>
    </contour>
  </outline>
</glyph>
<glyph name="comma" format="1">
  <advance width="290"/>
  <unicode hex="002C"/>
  <outline>
    <contour>
      <point x="95" y="-61" type="curve" smooth="yes"/>
      <point x="133" y="-50"/>
      <point x="188" y="16"/>
      <point x="188" y="71" type="curve" smooth="yes"/>
      <point x="188" y="89"/>
      <point x="181" y="104"/>
      <point x="162" y="104" type="curve" smooth="yes"/>
      <point x="140" y="104"/>
      <point x="131" y="94"/>
      <point x="129" y="80" type="curve" smooth="yes"/>
      <point x="124" y="34"/>
      <point x="105" y="-12"/>
      <point x="83" y="-49" type="curve" smooth="yes"/>
      <point x="82" y="-51"/>
      <point x="81" y="-53"/>
      <point x="81" y="-55" type="curve" smooth="yes"/>
      <point x="81" y="-59"/>
      <point x="85" y="-62"/>
      <point x="90" y="-62" type="curve" smooth="yes"/>
      <point x="92" y="-62"/>
      <point x="93" y="-62"/>
    </contour>
  </outline>
</glyph>
<glyph name="three" format="1">
  <advance width="417"/>
  <unicode hex="0033"/>
  <outline>
    <contour>
      <point x="307" y="147" type="curve" smooth="yes"/>
      <point x="307" y="67"/>
      <point x="245" y="29"/>
      <point x="183" y="29" type="curve" smooth="yes"/>
      <point x="143" y="29"/>
      <point x="104" y="45"/>
      <point x="83" y="76" type="curve" smooth="yes"/>
      <point x="69" y="96"/>
      <point x="57" y="103"/>
      <point x="48" y="103" type="curve" smooth="yes"/>
      <point x="36" y="103"/>
      <point x="29" y="91"/>
      <point x="29" y="82" type="curve" smooth="yes"/>
      <point x="29" y="80"/>
      <point x="29" y="79"/>
      <point x="30" y="77" type="curve" smooth="yes"/>
      <point x="43" y="39"/>
      <point x="101" y="-13"/>
      <point x="195" y="-13" type="curve" smooth="yes"/>
      <point x="293" y="-13"/>
      <point x="358" y="49"/>
      <point x="358" y="137" type="curve" smooth="yes"/>
      <point x="358" y="209"/>
      <point x="334" y="251"/>
      <point x="260" y="274" type="curve"/>
      <point x="310" y="289"/>
      <point x="354" y="327"/>
      <point x="354" y="387" type="curve" smooth="yes"/>
      <point x="354" y="453"/>
      <point x="297" y="490"/>
      <point x="226" y="490" type="curve" smooth="yes"/>
      <point x="169" y="490"/>
      <point x="128" y="472"/>
      <point x="97" y="427" type="curve" smooth="yes"/>
      <point x="96" y="425"/>
      <point x="95" y="423"/>
      <point x="95" y="421" type="curve" smooth="yes"/>
      <point x="95" y="412"/>
      <point x="105" y="403"/>
      <point x="115" y="403" type="curve" smooth="yes"/>
      <point x="120" y="403"/>
      <point x="124" y="405"/>
      <point x="128" y="410" type="curve" smooth="yes"/>
      <point x="149" y="438"/>
      <point x="187" y="452"/>
      <point x="222" y="452" type="curve" smooth="yes"/>
      <point x="266" y="452"/>
      <point x="306" y="431"/>
      <point x="306" y="390" type="curve" smooth="yes"/>
      <point x="306" y="330"/>
      <point x="261" y="288"/>
      <point x="152" y="288" type="curve" smooth="yes"/>
      <point x="136" y="288"/>
      <point x="129" y="280"/>
      <point x="129" y="272" type="curve" smooth="yes"/>
      <point x="129" y="264"/>
      <point x="136" y="256"/>
      <point x="147" y="256" type="curve" smooth="yes"/>
      <point x="237" y="256"/>
      <point x="307" y="233"/>
    </contour>
  </outline>
</glyph>
<glyph name="four" format="1">
  <advance width="417"/>
  <unicode hex="0034"/>
  <outline>
    <contour>
      <point x="228" y="-19" type="line" smooth="yes"/>
      <point x="235" y="-19"/>
      <point x="245" y="-13"/>
      <point x="248" y="3" type="curve" smooth="yes"/>
      <point x="264" y="83" type="line"/>
      <point x="279" y="83"/>
      <point x="308" y="82"/>
      <point x="330" y="82" type="curve" smooth="yes"/>
      <point x="345" y="82" type="line" smooth="yes"/>
      <point x="359" y="83"/>
      <point x="366" y="99"/>
      <point x="366" y="111" type="curve" smooth="yes"/>
      <point x="366" y="118"/>
      <point x="363" y="124"/>
      <point x="358" y="124" type="curve" smooth="yes"/>
      <point x="347" y="124"/>
      <point x="334" y="122"/>
      <point x="275" y="122" type="curve"/>
      <point x="280" y="145"/>
      <point x="318" y="278"/>
      <point x="318" y="315" type="curve" smooth="yes"/>
      <point x="318" y="323"/>
      <point x="312" y="329"/>
      <point x="298" y="329" type="curve" smooth="yes"/>
      <point x="278" y="329"/>
      <point x="272" y="320"/>
      <point x="269" y="306" type="curve" smooth="yes"/>
      <point x="261" y="278"/>
      <point x="230" y="142"/>
      <point x="229" y="132" type="curve"/>
      <point x="216" y="124"/>
      <point x="191" y="122"/>
      <point x="167" y="122" type="curve" smooth="yes"/>
      <point x="142" y="122"/>
      <point x="118" y="124"/>
      <point x="113" y="124" type="curve"/>
      <point x="140" y="202"/>
      <point x="203" y="386"/>
      <point x="227" y="464" type="curve" smooth="yes"/>
      <point x="227" y="465"/>
      <point x="228" y="467"/>
      <point x="228" y="468" type="curve" smooth="yes"/>
      <point x="228" y="478"/>
      <point x="217" y="487"/>
      <point x="205" y="487" type="curve" smooth="yes"/>
      <point x="195" y="487"/>
      <point x="185" y="481"/>
      <point x="180" y="465" type="curve" smooth="yes"/>
      <point x="151" y="388"/>
      <point x="89" y="202"/>
      <point x="64" y="126" type="curve" smooth="yes"/>
      <point x="59" y="113"/>
      <point x="57" y="103"/>
      <point x="57" y="96" type="curve" smooth="yes"/>
      <point x="57" y="83"/>
      <point x="65" y="79"/>
      <point x="79" y="79" type="curve" smooth="yes"/>
      <point x="129" y="79"/>
      <point x="157" y="82"/>
      <point x="217" y="82" type="curve"/>
      <point x="202" y="9" type="line" smooth="yes"/>
      <point x="201" y="6"/>
      <point x="201" y="3"/>
      <point x="201" y="1" type="curve" smooth="yes"/>
      <point x="201" y="-13"/>
      <point x="212" y="-19"/>
      <point x="225" y="-19" type="curve" smooth="yes"/>
    </contour>
  </outline>
</glyph>
<glyph name="eight" format="1">
  <advance width="417"/>
  <unicode hex="0038"/>
  <outline>
    <contour>
      <point x="216" y="282" type="curve"/>
      <point x="196" y="298"/>
      <point x="158" y="340"/>
      <point x="158" y="375" type="curve" smooth="yes"/>
      <point x="158" y="420"/>
      <point x="191" y="455"/>
      <point x="246" y="455" type="curve" smooth="yes"/>
      <point x="295" y="455"/>
      <point x="320" y="430"/>
      <point x="320" y="390" type="curve" smooth="yes"/>
      <point x="320" y="347"/>
      <point x="261" y="299"/>
    </contour>
    <contour>
      <point x="198" y="37" type="curve" smooth="yes"/>
      <point x="153" y="37"/>
      <point x="112" y="62"/>
      <point x="112" y="107" type="curve" smooth="yes"/>
      <point x="112" y="171"/>
      <point x="175" y="216"/>
      <point x="210" y="234" type="curve"/>
      <point x="227" y="214"/>
      <point x="287" y="173"/>
      <point x="287" y="118" type="curve" smooth="yes"/>
      <point x="287" y="66"/>
      <point x="251" y="37"/>
    </contour>
    <contour>
      <point x="371" y="405" type="curve" smooth="yes"/>
      <point x="371" y="464"/>
      <point x="311" y="495"/>
      <point x="257" y="495" type="curve" smooth="yes"/>
      <point x="179" y="495"/>
      <point x="110" y="452"/>
      <point x="110" y="375" type="curve" smooth="yes"/>
      <point x="110" y="325"/>
      <point x="141" y="294"/>
      <point x="179" y="261" type="curve"/>
      <point x="126" y="225"/>
      <point x="62" y="189"/>
      <point x="62" y="100" type="curve" smooth="yes"/>
      <point x="62" y="28"/>
      <point x="123" y="-5"/>
      <point x="197" y="-5" type="curve" smooth="yes"/>
      <point x="272" y="-5"/>
      <point x="339" y="39"/>
      <point x="339" y="109" type="curve" smooth="yes"/>
      <point x="339" y="180"/>
      <point x="283" y="223"/>
      <point x="243" y="256" type="curve"/>
      <point x="306" y="286"/>
      <point x="371" y="316"/>
    </contour>
  </outline>
</glyph>
<glyph name="greater" format="1">
  <advance width="404"/>
  <unicode hex="003E"/>
  <outline>
    <contour>
      <point x="62" y="71" type="curve" smooth="yes"/>
      <point x="62" y="57"/>
      <point x="75" y="46"/>
      <point x="91" y="46" type="curve" smooth="yes"/>
      <point x="129" y="46"/>
      <point x="166" y="68"/>
      <point x="198" y="85" type="curve" smooth="yes"/>
      <point x="283" y="129"/>
      <point x="377" y="151"/>
      <point x="377" y="214" type="curve" smooth="yes"/>
      <point x="377" y="259"/>
      <point x="302" y="277"/>
      <point x="205" y="317" type="curve" smooth="yes"/>
      <point x="165" y="333"/>
      <point x="107" y="361"/>
      <point x="77" y="361" type="curve" smooth="yes"/>
      <point x="64" y="361"/>
      <point x="57" y="353"/>
      <point x="57" y="334" type="curve" smooth="yes"/>
      <point x="57" y="321"/>
      <point x="64" y="313"/>
      <point x="81" y="308" type="curve" smooth="yes"/>
      <point x="101" y="301"/>
      <point x="302" y="230"/>
      <point x="334" y="211" type="curve"/>
      <point x="298" y="186"/>
      <point x="125" y="103"/>
      <point x="87" y="93" type="curve" smooth="yes"/>
      <point x="72" y="89"/>
      <point x="62" y="81"/>
    </contour>
  </outline>
</glyph>
<glyph name="question" format="1">
  <advance width="441"/>
  <unicode hex="003F"/>
  <outline>
    <contour>
      <point x="208" y="0" type="curve" smooth="yes"/>
      <point x="243" y="0"/>
      <point x="262" y="21"/>
      <point x="262" y="55" type="curve" smooth="yes"/>
      <point x="262" y="85"/>
      <point x="246" y="100"/>
      <point x="214" y="100" type="curve" smooth="yes"/>
      <point x="181" y="100"/>
      <point x="162" y="79"/>
      <point x="162" y="45" type="curve" smooth="yes"/>
      <point x="162" y="14"/>
      <point x="177" y="0"/>
    </contour>
    <contour>
      <point x="196" y="221" type="curve" smooth="yes"/>
      <point x="196" y="207"/>
      <point x="203" y="202"/>
      <point x="215" y="202" type="curve" smooth="yes"/>
      <point x="228" y="202"/>
      <point x="235" y="203"/>
      <point x="238" y="226" type="curve" smooth="yes"/>
      <point x="256" y="369"/>
      <point x="417" y="392"/>
      <point x="417" y="518" type="curve" smooth="yes"/>
      <point x="417" y="582"/>
      <point x="366" y="640"/>
      <point x="288" y="640" type="curve" smooth="yes"/>
      <point x="195" y="640"/>
      <point x="146" y="577"/>
      <point x="129" y="536" type="curve" smooth="yes"/>
      <point x="127" y="532"/>
      <point x="126" y="528"/>
      <point x="126" y="524" type="curve" smooth="yes"/>
      <point x="126" y="508"/>
      <point x="142" y="498"/>
      <point x="155" y="498" type="curve" smooth="yes"/>
      <point x="161" y="498"/>
      <point x="167" y="501"/>
      <point x="170" y="506" type="curve" smooth="yes"/>
      <point x="200" y="563"/>
      <point x="235" y="590"/>
      <point x="288" y="590" type="curve" smooth="yes"/>
      <point x="330" y="590"/>
      <point x="356" y="554"/>
      <point x="356" y="512" type="curve" smooth="yes"/>
      <point x="356" y="413"/>
      <point x="204" y="384"/>
    </contour>
  </outline>
</glyph>
<glyph name="H" format="1">
  <advance width="678"/>
  <unicode hex="0048"/>
  <outline>
    <contour>
      <point x="422" y="658" type="move" name="top"/>
    </contour>
    <contour>
      <point x="13" y="-84" type="curve" smooth="yes"/>
      <point x="13" y="-101"/>
      <point x="23" y="-105"/>
      <point x="37" y="-105" type="curve" smooth="yes"/>
      <point x="61" y="-105"/>
      <point x="68" y="-87"/>
      <point x="80" y="-51" type="curve" smooth="yes"/>
      <point x="176.889" y="227.001" type="line" smooth="yes"/>
      <point x="177.259" y="227.001"/>
      <point x="177.63" y="227"/>
      <point x="178" y="227" type="curve" smooth="yes"/>
      <point x="266.053" y="227"/>
      <point x="353.359" y="237.619"/>
      <point x="433.741" y="256.504" type="curve"/>
      <point x="400" y="113" type="line" smooth="yes"/>
      <point x="393" y="84"/>
      <point x="390" y="57"/>
      <point x="390" y="34" type="curve" smooth="yes"/>
      <point x="390" y="-76"/>
      <point x="460" y="-121"/>
      <point x="540" y="-121" type="curve" smooth="yes"/>
      <point x="596" y="-121"/>
      <point x="657" y="-99"/>
      <point x="701" y="-60" type="curve" smooth="yes"/>
      <point x="703" y="-58"/>
      <point x="704" y="-57"/>
      <point x="704" y="-55" type="curve" smooth="yes"/>
      <point x="704" y="-46"/>
      <point x="685" y="-33"/>
      <point x="675" y="-33" type="curve" smooth="yes"/>
      <point x="673" y="-33"/>
      <point x="671" y="-34"/>
      <point x="670" y="-35" type="curve" smooth="yes"/>
      <point x="650" y="-55"/>
      <point x="593" y="-81"/>
      <point x="541" y="-81" type="curve" smooth="yes"/>
      <point x="489" y="-81"/>
      <point x="441" y="-55"/>
      <point x="441" y="31" type="curve" smooth="yes"/>
      <point x="441" y="56"/>
      <point x="445" y="86"/>
      <point x="454" y="121" type="curve" smooth="yes"/>
      <point x="491.231" y="271.764" type="line"/>
      <point x="676.156" y="326.728"/>
      <point x="812" y="426.486"/>
      <point x="812" y="538" type="curve" smooth="yes"/>
      <point x="812" y="611"/>
      <point x="756" y="653"/>
      <point x="690" y="653" type="curve" smooth="yes"/>
      <point x="610" y="653"/>
      <point x="513" y="592"/>
      <point x="479" y="449" type="curve" smooth="yes"/>
      <point x="445.288" y="305.618" type="line"/>
      <point x="367.307" y="284.503"/>
      <point x="281.515" y="272"/>
      <point x="196" y="272" type="curve" smooth="yes"/>
      <point x="194.859" y="272"/>
      <point x="193.717" y="272.007"/>
      <point x="192.574" y="272.007" type="curve" smooth="yes"/>
      <point x="233" y="388" type="line" smooth="yes"/>
      <point x="248" y="435"/>
      <point x="255" y="475"/>
      <point x="255" y="509" type="curve" smooth="yes"/>
      <point x="255" y="598"/>
      <point x="196" y="652"/>
      <point x="97" y="652" type="curve" smooth="yes"/>
      <point x="-11" y="652"/>
      <point x="-125" y="574"/>
      <point x="-125" y="437" type="curve" smooth="yes"/>
      <point x="-125" y="422"/>
      <point x="-114" y="416"/>
      <point x="-103" y="416" type="curve" smooth="yes"/>
      <point x="-95" y="416"/>
      <point x="-87" y="419"/>
      <point x="-87" y="424" type="curve" smooth="yes"/>
      <point x="-83" y="507"/>
      <point x="-12" y="606"/>
      <point x="92" y="606" type="curve" smooth="yes"/>
      <point x="159" y="606"/>
      <point x="204" y="578"/>
      <point x="204" y="514" type="curve" smooth="yes"/>
      <point x="204" y="478"/>
      <point x="192" y="427"/>
      <point x="166" y="357" type="curve" smooth="yes"/>
      <point x="136.036" y="274.12" type="line"/>
      <point x="113.761" y="275.734"/>
      <point x="91.603" y="278.312"/>
      <point x="70" y="282" type="curve" smooth="yes"/>
      <point x="67" y="282" type="line" smooth="yes"/>
      <point x="53" y="282"/>
      <point x="42" y="266"/>
      <point x="42" y="252" type="curve" smooth="yes"/>
      <point x="42" y="243"/>
      <point x="47" y="235"/>
      <point x="58" y="234" type="curve" smooth="yes"/>
      <point x="78.5188" y="231.435"/>
      <point x="99.0375" y="229.66"/>
      <point x="119.556" y="228.539" type="curve"/>
      <point x="25" y="-33" type="line" smooth="yes"/>
      <point x="16" y="-58"/>
      <point x="13" y="-74"/>
    </contour>
    <contour>
      <point x="504.044" y="323.649" type="curve"/>
      <point x="535" y="449" type="line" smooth="yes"/>
      <point x="563" y="559"/>
      <point x="634" y="604"/>
      <point x="689" y="604" type="curve" smooth="yes"/>
      <point x="729" y="604"/>
      <point x="761" y="581"/>
      <point x="761" y="539" type="curve" smooth="yes"/>
      <point x="761" y="457.552"/>
      <point x="652.874" y="374.962"/>
    </contour>
  </outline>
</glyph>
<glyph name="I" format="1">
  <advance width="335"/>
  <unicode hex="0049"/>
  <outline>
    <contour>
      <point x="342" y="658" type="move" name="top"/>
    </contour>
    <contour>
      <point x="166" y="0" type="move" name="ogonek"/>
    </contour>
    <contour>
      <point x="11" y="2" type="curve" smooth="yes"/>
      <point x="11" y="-15"/>
      <point x="19" y="-24"/>
      <point x="33" y="-24" type="curve" smooth="yes"/>
      <point x="71" y="-24"/>
      <point x="227" y="-8"/>
      <point x="318" y="-4" type="curve" smooth="yes"/>
      <point x="341" y="-3"/>
      <point x="349" y="13"/>
      <point x="349" y="25" type="curve" smooth="yes"/>
      <point x="349" y="39"/>
      <point x="338" y="40"/>
      <point x="323" y="40" type="curve" smooth="yes"/>
      <point x="314" y="40" type="line" smooth="yes"/>
      <point x="288" y="40"/>
      <point x="250" y="37"/>
      <point x="206" y="37" type="curve" smooth="yes"/>
      <point x="195" y="37" type="line"/>
      <point x="222" y="168"/>
      <point x="320" y="500"/>
      <point x="352" y="613" type="curve"/>
      <point x="386" y="617"/>
      <point x="487" y="622"/>
      <point x="519" y="627" type="curve" smooth="yes"/>
      <point x="527" y="628"/>
      <point x="530" y="636"/>
      <point x="530" y="645" type="curve" smooth="yes"/>
      <point x="530" y="656"/>
      <point x="525" y="667"/>
      <point x="517" y="667" type="curve" smooth="yes"/>
      <point x="481" y="668"/>
      <point x="448" y="668"/>
      <point x="418" y="668" type="curve" smooth="yes"/>
      <point x="248" y="668"/>
      <point x="175" y="655"/>
      <point x="154" y="645" type="curve" smooth="yes"/>
      <point x="149" y="642"/>
      <point x="146" y="634"/>
      <point x="146" y="625" type="curve" smooth="yes"/>
      <point x="146" y="612"/>
      <point x="151" y="598"/>
      <point x="158" y="598" type="curve" smooth="yes"/>
      <point x="159" y="598" type="line"/>
      <point x="209" y="607"/>
      <point x="282" y="607"/>
      <point x="299" y="610" type="curve"/>
      <point x="236" y="444"/>
      <point x="177" y="213"/>
      <point x="138" y="35" type="curve"/>
      <point x="120" y="34"/>
      <point x="18" y="32"/>
      <point x="13" y="13" type="curve" smooth="yes"/>
      <point x="12" y="9"/>
      <point x="11" y="6"/>
    </contour>
  </outline>
</glyph>
<glyph name="J" format="1">
  <advance width="480"/>
  <unicode hex="004A"/>
  <outline>
    <contour>
      <point x="432" y="658" type="move" name="top"/>
    </contour>
    <contour>
      <point x="601" y="576" type="curve" smooth="yes"/>
      <point x="669" y="576"/>
      <point x="674" y="585"/>
      <point x="674" y="600" type="curve" smooth="yes"/>
      <point x="674" y="615"/>
      <point x="663" y="627"/>
      <point x="652" y="627" type="curve" smooth="yes"/>
      <point x="650" y="627" type="line" smooth="yes"/>
      <point x="601.231" y="627"/>
      <point x="550.714" y="628.998"/>
      <point x="500.435" y="631.582" type="curve"/>
      <point x="498.969" y="638.381"/>
      <point x="494.482" y="644"/>
      <point x="485" y="644" type="curve" smooth="yes"/>
      <point x="472.264" y="644"/>
      <point x="466.421" y="642.783"/>
      <point x="462.308" y="633.636" type="curve"/>
      <point x="383.438" y="638.034"/>
      <point x="306.409" y="643"/>
      <point x="239" y="643" type="curve" smooth="yes"/>
      <point x="30" y="643"/>
      <point x="-57" y="545"/>
      <point x="-57" y="436" type="curve" smooth="yes"/>
      <point x="-57" y="424"/>
      <point x="-45" y="416"/>
      <point x="-34" y="416" type="curve" smooth="yes"/>
      <point x="-27" y="416"/>
      <point x="-21" y="419"/>
      <point x="-19" y="426" type="curve" smooth="yes"/>
      <point x="7" y="523"/>
      <point x="39" y="593"/>
      <point x="236" y="593" type="curve" smooth="yes"/>
      <point x="284.166" y="593"/>
      <point x="355.804" y="585.176"/>
      <point x="450.602" y="580.144" type="curve"/>
      <point x="416.386" y="405.969"/>
      <point x="292.731" y="-100"/>
      <point x="162" y="-100" type="curve" smooth="yes"/>
      <point x="110" y="-100"/>
      <point x="110" y="-21"/>
      <point x="103" y="30" type="curve" smooth="yes"/>
      <point x="102" y="43"/>
      <point x="92" y="50"/>
      <point x="82" y="50" type="curve" smooth="yes"/>
      <point x="72" y="50"/>
      <point x="63" y="43"/>
      <point x="63" y="28" type="curve" smooth="yes"/>
      <point x="63" y="-65"/>
      <point x="94" y="-148"/>
      <point x="168" y="-148" type="curve" smooth="yes"/>
      <point x="173" y="-148"/>
      <point x="178" y="-148"/>
      <point x="183" y="-147" type="curve" smooth="yes"/>
      <point x="297.735" y="-133.725"/>
      <point x="480.804" y="277.864"/>
      <point x="499.454" y="577.927" type="curve"/>
      <point x="531.1" y="576.747"/>
      <point x="564.952" y="576"/>
    </contour>
  </outline>
</glyph>
<glyph name="N" format="1">
  <advance width="572"/>
  <unicode hex="004E"/>
  <outline>
    <contour>
      <point x="402" y="658" type="move" name="top"/>
    </contour>
    <contour>
      <point x="126" y="541" type="curve" smooth="yes"/>
      <point x="157" y="541"/>
      <point x="159" y="497"/>
      <point x="159" y="461" type="curve" smooth="yes"/>
      <point x="159" y="346"/>
      <point x="123" y="156"/>
      <point x="76" y="23" type="curve" smooth="yes"/>
      <point x="75" y="20"/>
      <point x="74" y="17"/>
      <point x="74" y="13" type="curve" smooth="yes"/>
      <point x="74" y="0"/>
      <point x="83" y="-16"/>
      <point x="102" y="-16" type="curve" smooth="yes"/>
      <point x="116" y="-16"/>
      <point x="128" y="-7"/>
      <point x="133" y="9" type="curve" smooth="yes"/>
      <point x="199" y="247"/>
      <point x="372" y="540"/>
      <point x="453" y="540" type="curve" smooth="yes"/>
      <point x="491" y="540"/>
      <point x="492" y="509"/>
      <point x="492" y="482" type="curve" smooth="yes"/>
      <point x="492" y="409"/>
      <point x="385" y="190"/>
      <point x="385" y="71" type="curve" smooth="yes"/>
      <point x="385" y="9"/>
      <point x="417" y="-31"/>
      <point x="499" y="-31" type="curve" smooth="yes"/>
      <point x="537" y="-31"/>
      <point x="592" y="-6"/>
      <point x="624" y="25" type="curve" smooth="yes"/>
      <point x="638" y="38"/>
      <point x="643" y="50"/>
      <point x="643" y="58" type="curve" smooth="yes"/>
      <point x="643" y="66"/>
      <point x="637" y="71"/>
      <point x="630" y="71" type="curve" smooth="yes"/>
      <point x="624" y="71"/>
      <point x="616" y="68"/>
      <point x="609" y="60" type="curve" smooth="yes"/>
      <point x="580" y="28"/>
      <point x="540" y="10"/>
      <point x="507" y="10" type="curve" smooth="yes"/>
      <point x="472" y="10"/>
      <point x="443" y="31"/>
      <point x="443" y="78" type="curve" smooth="yes"/>
      <point x="443" y="82"/>
      <point x="444" y="85"/>
      <point x="444" y="89" type="curve" smooth="yes"/>
      <point x="455" y="209"/>
      <point x="554" y="404"/>
      <point x="554" y="502" type="curve" smooth="yes"/>
      <point x="554" y="550"/>
      <point x="517" y="592"/>
      <point x="455" y="592" type="curve" smooth="yes"/>
      <point x="343" y="592"/>
      <point x="252" y="432"/>
      <point x="183" y="265" type="curve"/>
      <point x="194" y="331"/>
      <point x="207" y="409"/>
      <point x="207" y="466" type="curve" smooth="yes"/>
      <point x="207" y="534"/>
      <point x="188" y="583"/>
      <point x="130" y="583" type="curve" smooth="yes"/>
      <point x="85" y="583"/>
      <point x="49" y="547"/>
      <point x="25" y="507" type="curve" smooth="yes"/>
      <point x="21" y="500"/>
      <point x="19" y="493"/>
      <point x="19" y="487" type="curve" smooth="yes"/>
      <point x="19" y="476"/>
      <point x="26" y="470"/>
      <point x="35" y="470" type="curve" smooth="yes"/>
      <point x="41" y="470"/>
      <point x="48" y="473"/>
      <point x="54" y="481" type="curve" smooth="yes"/>
      <point x="86" y="522"/>
      <point x="105" y="540"/>
    </contour>
  </outline>
</glyph>
<glyph name="T" format="1">
  <advance width="476"/>
  <unicode hex="0054"/>
  <outline>
    <contour>
      <point x="336" y="304" type="move" name="mid"/>
    </contour>
    <contour>
      <point x="432" y="658" type="move" name="top"/>
    </contour>
    <contour>
      <point x="289" y="-113" type="move" name="bot"/>
    </contour>
    <contour>
      <point x="273" y="-90" type="curve" smooth="yes"/>
      <point x="293" y="-90"/>
      <point x="302" y="-78"/>
      <point x="306" y="-51" type="curve" smooth="yes"/>
      <point x="314.914" y="9.41977"/>
      <point x="344.431" y="278.807"/>
      <point x="436.335" y="585.164" type="curve"/>
      <point x="509.082" y="580.704"/>
      <point x="596.519" y="576"/>
      <point x="687" y="576" type="curve" smooth="yes"/>
      <point x="755" y="576"/>
      <point x="760" y="585"/>
      <point x="760" y="600" type="curve" smooth="yes"/>
      <point x="760" y="615"/>
      <point x="749" y="627"/>
      <point x="738" y="627" type="curve" smooth="yes"/>
      <point x="736" y="627" type="line" smooth="yes"/>
      <point x="598" y="627"/>
      <point x="408" y="643"/>
      <point x="287" y="643" type="curve" smooth="yes"/>
      <point x="78" y="643"/>
      <point x="-9" y="545"/>
      <point x="-9" y="436" type="curve" smooth="yes"/>
      <point x="-9" y="424"/>
      <point x="3" y="416"/>
      <point x="14" y="416" type="curve" smooth="yes"/>
      <point x="21" y="416"/>
      <point x="27" y="419"/>
      <point x="29" y="426" type="curve" smooth="yes"/>
      <point x="55" y="523"/>
      <point x="87" y="593"/>
      <point x="284" y="593" type="curve" smooth="yes"/>
      <point x="309.967" y="593"/>
      <point x="348.458" y="590.661"/>
      <point x="395.387" y="587.717" type="curve"/>
      <point x="274.603" y="295.571"/>
      <point x="247" y="-12.3133"/>
      <point x="247" y="-56" type="curve" smooth="yes"/>
      <point x="247" y="-76"/>
      <point x="253" y="-90"/>
    </contour>
  </outline>
</glyph>
<glyph name="U" format="1">
  <advance width="632"/>
  <unicode hex="0055"/>
  <outline>
    <contour>
      <point x="442" y="658" type="move" name="top"/>
    </contour>
    <contour>
      <point x="310" y="-27" type="move" name="ogonek"/>
    </contour>
    <contour>
      <point x="472" y="567" type="curve" smooth="yes"/>
      <point x="472" y="603"/>
      <point x="494" y="636"/>
      <point x="537" y="636" type="curve" smooth="yes"/>
      <point x="582" y="636"/>
      <point x="601" y="589"/>
      <point x="601" y="520" type="curve" smooth="yes"/>
      <point x="601" y="501.111"/>
      <point x="599.497" y="480.609"/>
      <point x="596.6" y="459.038" type="curve" smooth="yes"/>
      <point x="595.392" y="459.013"/>
      <point x="594.192" y="459"/>
      <point x="593" y="459" type="curve" smooth="yes"/>
      <point x="512" y="459"/>
      <point x="472" y="517"/>
    </contour>
    <contour>
      <point x="646.659" y="424.3" type="curve"/>
      <point x="689.104" y="434.465"/>
      <point x="737.084" y="455.83"/>
      <point x="790" y="492" type="curve" smooth="yes"/>
      <point x="797" y="496"/>
      <point x="800" y="502"/>
      <point x="800" y="508" type="curve" smooth="yes"/>
      <point x="800" y="518"/>
      <point x="791" y="528"/>
      <point x="779" y="528" type="curve" smooth="yes"/>
      <point x="774" y="528"/>
      <point x="769" y="527"/>
      <point x="764" y="523" type="curve" smooth="yes"/>
      <point x="722.294" y="495.196"/>
      <point x="684.972" y="477.622"/>
      <point x="652.034" y="468.068" type="curve"/>
      <point x="653.337" y="483.176"/>
      <point x="654" y="497.865"/>
      <point x="654" y="512" type="curve" smooth="yes"/>
      <point x="654" y="610"/>
      <point x="622" y="681"/>
      <point x="551" y="681" type="curve" smooth="yes"/>
      <point x="465" y="681"/>
      <point x="424" y="624"/>
      <point x="424" y="566" type="curve" smooth="yes"/>
      <point x="424" y="495"/>
      <point x="482" y="417"/>
      <point x="588" y="417" type="curve" smooth="yes"/>
      <point x="588.488" y="417"/>
      <point x="588.977" y="417.005"/>
      <point x="589.467" y="417.005" type="curve"/>
      <point x="552.779" y="236.483"/>
      <point x="432.346" y="10"/>
      <point x="283" y="10" type="curve" smooth="yes"/>
      <point x="190" y="10"/>
      <point x="154" y="87"/>
      <point x="154" y="188" type="curve" smooth="yes"/>
      <point x="154" y="303"/>
      <point x="200" y="448"/>
      <point x="261" y="548" type="curve" smooth="yes"/>
      <point x="264" y="552"/>
      <point x="265" y="556"/>
      <point x="265" y="559" type="curve" smooth="yes"/>
      <point x="265" y="569"/>
      <point x="255" y="575"/>
      <point x="243" y="575" type="curve" smooth="yes"/>
      <point x="239.062" y="575"/>
      <point x="234.757" y="574.358"/>
      <point x="230.391" y="572.99" type="curve" smooth="yes"/>
      <point x="230.261" y="572.997"/>
      <point x="230.131" y="573"/>
      <point x="230" y="573" type="curve" smooth="yes"/>
      <point x="229" y="573"/>
      <point x="227" y="573"/>
      <point x="226" y="572" type="curve" smooth="yes"/>
      <point x="78" y="483" type="line" smooth="yes"/>
      <point x="70" y="478"/>
      <point x="67" y="470"/>
      <point x="67" y="462" type="curve" smooth="yes"/>
      <point x="67" y="452"/>
      <point x="72" y="441"/>
      <point x="81" y="441" type="curve" smooth="yes"/>
      <point x="83" y="441"/>
      <point x="86" y="442"/>
      <point x="89" y="444" type="curve" smooth="yes"/>
      <point x="172.901" y="496.018" type="line"/>
      <point x="125.609" y="399.809"/>
      <point x="95" y="285.253"/>
      <point x="95" y="186" type="curve" smooth="yes"/>
      <point x="95" y="58"/>
      <point x="147" y="-43"/>
      <point x="280" y="-43" type="curve" smooth="yes"/>
      <point x="473.503" y="-43"/>
      <point x="613.823" y="216.073"/>
    </contour>
  </outline>
</glyph>
<glyph name="W" format="1">
  <advance width="936"/>
  <unicode hex="0057"/>
  <outline>
    <contour>
      <point x="642" y="658" type="move" name="top"/>
    </contour>
    <contour>
      <point x="987" y="520" type="curve" smooth="yes"/>
      <point x="987" y="608"/>
      <point x="948" y="653"/>
      <point x="887" y="653" type="curve" smooth="yes"/>
      <point x="811" y="653"/>
      <point x="777" y="601"/>
      <point x="777" y="543" type="curve" smooth="yes"/>
      <point x="777" y="475.545"/>
      <point x="823.917" y="399.192"/>
      <point x="908.294" y="384.512" type="curve"/>
      <point x="896.887" y="354.44"/>
      <point x="881.999" y="320.997"/>
      <point x="863" y="284" type="curve" smooth="yes"/>
      <point x="813" y="188"/>
      <point x="730" y="46"/>
      <point x="638" y="35" type="curve" smooth="yes"/>
      <point x="631" y="35" type="line" smooth="yes"/>
      <point x="587" y="35"/>
      <point x="553" y="78"/>
      <point x="553" y="184" type="curve" smooth="yes"/>
      <point x="553" y="207"/>
      <point x="555" y="265"/>
      <point x="560" y="274" type="curve" smooth="yes"/>
      <point x="564" y="283"/>
      <point x="636" y="397"/>
      <point x="636" y="456" type="curve" smooth="yes"/>
      <point x="636" y="474"/>
      <point x="628" y="486"/>
      <point x="607" y="486" type="curve" smooth="yes"/>
      <point x="593" y="486"/>
      <point x="576" y="465"/>
      <point x="560" y="430" type="curve" smooth="yes"/>
      <point x="544.708" y="396.138"/>
      <point x="531.205" y="350.047"/>
      <point x="522.099" y="300.197" type="curve"/>
      <point x="514" y="284" type="line" smooth="yes"/>
      <point x="464" y="188"/>
      <point x="381" y="46"/>
      <point x="289" y="35" type="curve" smooth="yes"/>
      <point x="281" y="35" type="line" smooth="yes"/>
      <point x="239" y="35"/>
      <point x="210" y="71"/>
      <point x="210" y="164" type="curve" smooth="yes"/>
      <point x="210" y="347"/>
      <point x="312" y="480"/>
      <point x="322" y="494" type="curve" smooth="yes"/>
      <point x="323" y="495"/>
      <point x="323" y="496"/>
      <point x="323" y="497" type="curve" smooth="yes"/>
      <point x="323" y="503"/>
      <point x="313" y="514"/>
      <point x="299" y="514" type="curve" smooth="yes"/>
      <point x="291.44" y="514"/>
      <point x="283.087" y="511.222"/>
      <point x="274.189" y="503.915" type="curve" smooth="yes"/>
      <point x="273.244" y="503.807"/>
      <point x="272.122" y="503.561"/>
      <point x="271" y="503" type="curve" smooth="yes"/>
      <point x="44" y="366" type="line" smooth="yes"/>
      <point x="36" y="361"/>
      <point x="33" y="353"/>
      <point x="33" y="345" type="curve" smooth="yes"/>
      <point x="33" y="334"/>
      <point x="39" y="324"/>
      <point x="47" y="324" type="curve" smooth="yes"/>
      <point x="50" y="324"/>
      <point x="52" y="325"/>
      <point x="55" y="327" type="curve" smooth="yes"/>
      <point x="224.946" y="432.382" type="line"/>
      <point x="194.405" y="375.938"/>
      <point x="156" y="282.917"/>
      <point x="156" y="170" type="curve" smooth="yes"/>
      <point x="156" y="44"/>
      <point x="195" y="-20"/>
      <point x="274" y="-20" type="curve"/>
      <point x="367.802" y="-14.8366"/>
      <point x="438.646" y="79.9367"/>
      <point x="510.75" y="203.137" type="curve"/>
      <point x="510.257" y="193.007"/>
      <point x="510" y="182.939"/>
      <point x="510" y="173" type="curve" smooth="yes"/>
      <point x="510" y="69"/>
      <point x="539" y="-20"/>
      <point x="624" y="-20" type="curve"/>
      <point x="733" y="-14"/>
      <point x="818" y="106"/>
      <point x="903" y="258" type="curve" smooth="yes"/>
      <point x="928.294" y="303.108"/>
      <point x="947.191" y="345.017"/>
      <point x="960.588" y="383.353" type="curve"/>
      <point x="1009.86" y="389.156"/>
      <point x="1067.45" y="414.004"/>
      <point x="1134" y="465" type="curve" smooth="yes"/>
      <point x="1141" y="470"/>
      <point x="1143" y="477"/>
      <point x="1143" y="483" type="curve" smooth="yes"/>
      <point x="1143" y="492"/>
      <point x="1137" y="500"/>
      <point x="1129" y="500" type="curve" smooth="yes"/>
      <point x="1126" y="500"/>
      <point x="1123" y="499"/>
      <point x="1120" y="497" type="curve" smooth="yes"/>
      <point x="1062.64" y="453.787"/>
      <point x="1013.93" y="432.179"/>
      <point x="973.374" y="424.903" type="curve"/>
      <point x="982.756" y="460.422"/>
      <point x="987" y="492.245"/>
    </contour>
    <contour>
      <point x="921.748" y="423.442" type="curve"/>
      <point x="856.495" y="433.031"/>
      <point x="825" y="488.66"/>
      <point x="825" y="536" type="curve" smooth="yes"/>
      <point x="825" y="575"/>
      <point x="846" y="608"/>
      <point x="887" y="608" type="curve" smooth="yes"/>
      <point x="916" y="608"/>
      <point x="940" y="583"/>
      <point x="940" y="526" type="curve" smooth="yes"/>
      <point x="940" y="499.209"/>
      <point x="934.691" y="465.251"/>
    </contour>
  </outline>
</glyph>
<glyph name="Z" format="1">
  <advance width="508"/>
  <unicode hex="005A"/>
  <outline>
    <contour>
      <point x="482" y="658" type="move" name="top"/>
    </contour>
    <contour>
      <point x="667" y="576" type="curve" smooth="yes"/>
      <point x="735" y="576"/>
      <point x="740" y="585"/>
      <point x="740" y="600" type="curve" smooth="yes"/>
      <point x="740" y="615"/>
      <point x="729" y="627"/>
      <point x="718" y="627" type="curve" smooth="yes"/>
      <point x="716" y="627" type="line" smooth="yes"/>
      <point x="578" y="627"/>
      <point x="426" y="643"/>
      <point x="305" y="643" type="curve" smooth="yes"/>
      <point x="96" y="643"/>
      <point x="9" y="545"/>
      <point x="9" y="436" type="curve" smooth="yes"/>
      <point x="9" y="424"/>
      <point x="21" y="416"/>
      <point x="32" y="416" type="curve" smooth="yes"/>
      <point x="39" y="416"/>
      <point x="45" y="419"/>
      <point x="47" y="426" type="curve" smooth="yes"/>
      <point x="73" y="523"/>
      <point x="105" y="593"/>
      <point x="302" y="593" type="curve" smooth="yes"/>
      <point x="363.279" y="593"/>
      <point x="462.548" y="580.337"/>
      <point x="599.165" y="576.869" type="curve"/>
      <point x="355.56" y="359.477"/>
      <point x="161.12" y="185.994"/>
      <point x="74" y="93" type="curve" smooth="yes"/>
      <point x="43" y="59"/>
      <point x="26" y="35"/>
      <point x="26" y="24" type="curve" smooth="yes"/>
      <point x="26" y="14"/>
      <point x="35" y="7"/>
      <point x="44" y="7" type="curve" smooth="yes"/>
      <point x="59" y="7"/>
      <point x="75" y="18"/>
      <point x="94" y="40" type="curve"/>
      <point x="181" y="-9"/>
      <point x="270" y="-50"/>
      <point x="371" y="-50" type="curve" smooth="yes"/>
      <point x="442" y="-50"/>
      <point x="518" y="-30"/>
      <point x="604" y="22" type="curve" smooth="yes"/>
      <point x="608" y="24"/>
      <point x="610" y="27"/>
      <point x="610" y="32" type="curve" smooth="yes"/>
      <point x="610" y="43"/>
      <point x="599" y="60"/>
      <point x="589" y="60" type="curve" smooth="yes"/>
      <point x="588" y="60"/>
      <point x="586" y="60"/>
      <point x="585" y="59" type="curve" smooth="yes"/>
      <point x="520" y="24"/>
      <point x="461" y="-3"/>
      <point x="385" y="-3" type="curve" smooth="yes"/>
      <point x="318" y="-3"/>
      <point x="238" y="18"/>
      <point x="130" y="76" type="curve" smooth="yes"/>
      <point x="128" y="77"/>
      <point x="126" y="78"/>
      <point x="124" y="80" type="curve" smooth="yes"/>
      <point x="246.507" y="208.34"/>
      <point x="484.343" y="411.361"/>
      <point x="659.2" y="576.012" type="curve" smooth="yes"/>
      <point x="661.789" y="576.004"/>
      <point x="664.388" y="576"/>
    </contour>
  </outline>
</glyph>
<glyph name="d" format="1">
  <advance width="395"/>
  <unicode hex="0064"/>
  <outline>
    <contour>
      <point x="521" y="555" type="move" name="caron.alt"/>
    </contour>
    <contour>
      <point x="298" y="456" type="move" name="mid"/>
    </contour>
    <contour>
      <point x="408" y="595" type="curve" smooth="yes"/>
      <point x="425" y="595"/>
      <point x="436" y="581"/>
      <point x="436" y="552" type="curve" smooth="yes"/>
      <point x="436" y="457"/>
      <point x="365" y="341"/>
      <point x="277" y="211" type="curve"/>
      <point x="297" y="351"/>
      <point x="334" y="595"/>
    </contour>
    <contour>
      <point x="124" y="40" type="curve" smooth="yes"/>
      <point x="98" y="40"/>
      <point x="78" y="63"/>
      <point x="78" y="111" type="curve" smooth="yes"/>
      <point x="78" y="186"/>
      <point x="139" y="284"/>
      <point x="214" y="284" type="curve" smooth="yes"/>
      <point x="222" y="284"/>
      <point x="230" y="282"/>
      <point x="239" y="280" type="curve"/>
      <point x="226" y="182" type="line" smooth="yes"/>
      <point x="215" y="111"/>
      <point x="176" y="40"/>
    </contour>
    <contour>
      <point x="27" y="103" type="curve" smooth="yes"/>
      <point x="27" y="39"/>
      <point x="63" y="-5"/>
      <point x="118" y="-5" type="curve" smooth="yes"/>
      <point x="172" y="-5"/>
      <point x="215" y="43"/>
      <point x="231" y="93" type="curve"/>
      <point x="238" y="29"/>
      <point x="280" y="-3"/>
      <point x="324" y="-3" type="curve" smooth="yes"/>
      <point x="395" y="-3"/>
      <point x="437" y="42"/>
      <point x="469" y="82" type="curve" smooth="yes"/>
      <point x="472" y="85"/>
      <point x="476" y="93"/>
      <point x="475" y="99" type="curve" smooth="yes"/>
      <point x="475" y="111"/>
      <point x="465" y="119"/>
      <point x="455" y="118" type="curve" smooth="yes"/>
      <point x="449" y="118"/>
      <point x="447" y="115"/>
      <point x="442" y="110" type="curve" smooth="yes"/>
      <point x="417" y="74"/>
      <point x="376" y="42"/>
      <point x="328" y="42" type="curve" smooth="yes"/>
      <point x="295" y="42"/>
      <point x="273" y="68"/>
      <point x="273" y="130" type="curve" smooth="yes"/>
      <point x="273" y="146" type="line" smooth="yes"/>
      <point x="348" y="256"/>
      <point x="486" y="434"/>
      <point x="486" y="584" type="curve" smooth="yes"/>
      <point x="486" y="590"/>
      <point x="485" y="595"/>
      <point x="485" y="601" type="curve" smooth="yes"/>
      <point x="483" y="630"/>
      <point x="459" y="657"/>
      <point x="425" y="657" type="curve" smooth="yes"/>
      <point x="333" y="657"/>
      <point x="270" y="516"/>
      <point x="241" y="318" type="curve"/>
      <point x="228" y="324"/>
      <point x="215" y="326"/>
      <point x="202" y="326" type="curve" smooth="yes"/>
      <point x="115" y="326"/>
      <point x="27" y="209"/>
    </contour>
  </outline>
</glyph>
<glyph name="e" format="1">
  <advance width="263"/>
  <unicode hex="0065"/>
  <outline>
    <contour>
      <point x="202" y="333" type="move" name="top"/>
    </contour>
    <contour>
      <point x="208" y="0" type="move" name="ogonek"/>
    </contour>
    <contour>
      <point x="77" y="148" type="curve"/>
      <point x="77" y="208"/>
      <point x="125" y="289"/>
      <point x="186" y="289" type="curve" smooth="yes"/>
      <point x="205" y="289"/>
      <point x="225" y="276"/>
      <point x="225" y="248" type="curve" smooth="yes"/>
      <point x="225" y="193"/>
      <point x="131" y="152"/>
    </contour>
    <contour>
      <point x="25" y="132" type="curve" smooth="yes"/>
      <point x="25" y="49"/>
      <point x="82" y="-6"/>
      <point x="158" y="-6" type="curve" smooth="yes"/>
      <point x="244" y="-6"/>
      <point x="324" y="51"/>
      <point x="354" y="91" type="curve" smooth="yes"/>
      <point x="357" y="95"/>
      <point x="358" y="99"/>
      <point x="358" y="103" type="curve" smooth="yes"/>
      <point x="358" y="114"/>
      <point x="349" y="122"/>
      <point x="342" y="122" type="curve" smooth="yes"/>
      <point x="340" y="122"/>
      <point x="339" y="122"/>
      <point x="338" y="121" type="curve" smooth="yes"/>
      <point x="282" y="66"/>
      <point x="218" y="36"/>
      <point x="167" y="36" type="curve" smooth="yes"/>
      <point x="121" y="36"/>
      <point x="86" y="60"/>
      <point x="78" y="109" type="curve"/>
      <point x="196" y="125"/>
      <point x="270" y="184"/>
      <point x="270" y="255" type="curve" smooth="yes"/>
      <point x="270" y="302"/>
      <point x="229" y="331"/>
      <point x="182" y="331" type="curve" smooth="yes"/>
      <point x="92" y="331"/>
      <point x="25" y="239"/>
    </contour>
  </outline>
</glyph>
<glyph name="l" format="1">
  <advance width="226"/>
  <unicode hex="006C"/>
  <outline>
    <contour>
      <point x="402" y="391" type="move" name="caron.alt"/>
    </contour>
    <contour>
      <point x="362" y="335" type="move" name="mid"/>
    </contour>
    <contour>
      <point x="110" y="270" type="curve"/>
      <point x="124" y="358"/>
      <point x="199" y="600"/>
      <point x="272" y="600" type="curve" smooth="yes"/>
      <point x="291" y="600"/>
      <point x="299" y="588"/>
      <point x="299" y="569" type="curve" smooth="yes"/>
      <point x="299" y="475"/>
      <point x="178" y="339"/>
    </contour>
    <contour>
      <point x="140" y="-0" type="curve" smooth="yes"/>
      <point x="193" y="-0"/>
      <point x="245" y="26"/>
      <point x="298" y="85" type="curve" smooth="yes"/>
      <point x="304" y="92"/>
      <point x="307" y="99"/>
      <point x="307" y="105" type="curve" smooth="yes"/>
      <point x="307" y="117"/>
      <point x="297" y="124"/>
      <point x="288" y="124" type="curve" smooth="yes"/>
      <point x="284" y="124"/>
      <point x="281" y="123"/>
      <point x="278" y="120" type="curve" smooth="yes"/>
      <point x="244" y="80"/>
      <point x="196" y="42"/>
      <point x="157" y="42" type="curve" smooth="yes"/>
      <point x="113" y="42"/>
      <point x="99" y="77"/>
      <point x="99" y="133" type="curve" smooth="yes"/>
      <point x="99" y="159"/>
      <point x="102" y="190"/>
      <point x="107" y="223" type="curve"/>
      <point x="210" y="302"/>
      <point x="349" y="460"/>
      <point x="349" y="585" type="curve" smooth="yes"/>
      <point x="349" y="623"/>
      <point x="328" y="657"/>
      <point x="289" y="657" type="curve" smooth="yes"/>
      <point x="154" y="657"/>
      <point x="62" y="350"/>
      <point x="48" y="179" type="curve" smooth="yes"/>
      <point x="47" y="165"/>
      <point x="46" y="152"/>
      <point x="46" y="139" type="curve" smooth="yes"/>
      <point x="46" y="50"/>
      <point x="73" y="-0"/>
    </contour>
  </outline>
</glyph>
<glyph name="r" format="1">
  <advance width="298"/>
  <unicode hex="0072"/>
  <outline>
    <contour>
      <point x="222" y="333" type="move" name="top"/>
    </contour>
    <contour>
      <point x="75" y="0" type="curve" smooth="yes"/>
      <point x="96" y="0"/>
      <point x="97" y="5"/>
      <point x="103" y="19" type="curve" smooth="yes"/>
      <point x="154" y="159"/>
      <point x="224" y="271"/>
      <point x="239" y="271" type="curve" smooth="yes"/>
      <point x="241" y="271"/>
      <point x="242" y="269"/>
      <point x="242" y="265" type="curve" smooth="yes"/>
      <point x="242" y="261"/>
      <point x="241" y="256"/>
      <point x="239" y="248" type="curve" smooth="yes"/>
      <point x="232" y="227"/>
      <point x="228" y="205"/>
      <point x="228" y="185" type="curve" smooth="yes"/>
      <point x="228" y="145"/>
      <point x="244" y="112"/>
      <point x="282" y="112" type="curve" smooth="yes"/>
      <point x="320" y="112"/>
      <point x="351" y="142"/>
      <point x="368" y="164" type="curve" smooth="yes"/>
      <point x="373" y="170"/>
      <point x="375" y="176"/>
      <point x="375" y="182" type="curve" smooth="yes"/>
      <point x="375" y="191"/>
      <point x="371" y="197"/>
      <point x="364" y="197" type="curve" smooth="yes"/>
      <point x="360" y="197"/>
      <point x="355" y="195"/>
      <point x="351" y="191" type="curve" smooth="yes"/>
      <point x="326" y="166"/>
      <point x="305" y="154"/>
      <point x="291" y="154" type="curve" smooth="yes"/>
      <point x="277" y="154"/>
      <point x="270" y="166"/>
      <point x="270" y="187" type="curve" smooth="yes"/>
      <point x="270" y="196"/>
      <point x="271" y="207"/>
      <point x="274" y="219" type="curve" smooth="yes"/>
      <point x="282" y="251"/>
      <point x="288" y="276"/>
      <point x="288" y="294" type="curve" smooth="yes"/>
      <point x="288" y="317"/>
      <point x="279" y="329"/>
      <point x="254" y="329" type="curve" smooth="yes"/>
      <point x="197" y="329"/>
      <point x="121" y="174"/>
      <point x="101" y="111" type="curve"/>
      <point x="107" y="207"/>
      <point x="130" y="273"/>
      <point x="139" y="307" type="curve" smooth="yes"/>
      <point x="139" y="308"/>
      <point x="140" y="310"/>
      <point x="140" y="311" type="curve" smooth="yes"/>
      <point x="140" y="321"/>
      <point x="131" y="330"/>
      <point x="120" y="330" type="curve" smooth="yes"/>
      <point x="102" y="330"/>
      <point x="95" y="321"/>
      <point x="86" y="292" type="curve" smooth="yes"/>
      <point x="68" y="233"/>
      <point x="49" y="131"/>
      <point x="48" y="63" type="curve" smooth="yes"/>
      <point x="48" y="56" type="line" smooth="yes"/>
      <point x="48" y="24"/>
      <point x="49" y="0"/>
    </contour>
  </outline>
</glyph>
<glyph name="s" format="1">
  <advance width="294"/>
  <unicode hex="0073"/>
  <outline>
    <contour>
      <point x="252" y="333" type="move" name="top"/>
    </contour>
    <contour>
      <point x="146" y="14" type="move" name="bot"/>
    </contour>
    <contour>
      <point x="153" y="37" type="curve" smooth="yes"/>
      <point x="112" y="37"/>
      <point x="82" y="59"/>
      <point x="68" y="78" type="curve"/>
      <point x="85" y="110"/>
      <point x="141" y="215"/>
      <point x="141" y="215" type="curve"/>
      <point x="151" y="236" type="line"/>
      <point x="192" y="175"/>
      <point x="212" y="126"/>
      <point x="212" y="92" type="curve" smooth="yes"/>
      <point x="212" y="57"/>
      <point x="191" y="37"/>
    </contour>
    <contour>
      <point x="188" y="274" type="curve" smooth="yes"/>
      <point x="188" y="284"/>
      <point x="195" y="294"/>
      <point x="195" y="304" type="curve" smooth="yes"/>
      <point x="195" y="319"/>
      <point x="183" y="331"/>
      <point x="169" y="331" type="curve" smooth="yes"/>
      <point x="159" y="331"/>
      <point x="147" y="325"/>
      <point x="139" y="309" type="curve" smooth="yes"/>
      <point x="51" y="134"/>
      <point x="29" y="97"/>
      <point x="18" y="70" type="curve"/>
      <point x="26" y="41"/>
      <point x="78" y="-2"/>
      <point x="171" y="-3" type="curve" smooth="yes"/>
      <point x="278" y="-3"/>
      <point x="338" y="45"/>
      <point x="381" y="95" type="curve" smooth="yes"/>
      <point x="382" y="96"/>
      <point x="382" y="98"/>
      <point x="382" y="100" type="curve" smooth="yes"/>
      <point x="382" y="111"/>
      <point x="371" y="130"/>
      <point x="363" y="130" type="curve" smooth="yes"/>
      <point x="362" y="130"/>
      <point x="360" y="129"/>
      <point x="359" y="128" type="curve" smooth="yes"/>
      <point x="345" y="111"/>
      <point x="306" y="56"/>
      <point x="244" y="43" type="curve"/>
      <point x="255" y="62"/>
      <point x="260" y="81"/>
      <point x="260" y="99" type="curve" smooth="yes"/>
      <point x="260" y="171"/>
      <point x="188" y="233"/>
    </contour>
  </outline>
</glyph>
<glyph name="u" format="1">
  <advance width="347"/>
  <unicode hex="0075"/>
  <outline>
    <contour>
      <point x="212" y="333" type="move" name="top"/>
    </contour>
    <contour>
      <point x="270" y="0" type="move" name="ogonek"/>
    </contour>
    <contour>
      <point x="31" y="91" type="curve" smooth="yes"/>
      <point x="31" y="31"/>
      <point x="62" y="-5"/>
      <point x="120" y="-5" type="curve" smooth="yes"/>
      <point x="170" y="-5"/>
      <point x="202" y="23"/>
      <point x="226" y="66" type="curve"/>
      <point x="226" y="30"/>
      <point x="240" y="-4"/>
      <point x="282" y="-4" type="curve" smooth="yes"/>
      <point x="333" y="-4"/>
      <point x="396" y="49"/>
      <point x="420" y="90" type="curve" smooth="yes"/>
      <point x="423" y="94"/>
      <point x="424" y="98"/>
      <point x="424" y="102" type="curve" smooth="yes"/>
      <point x="424" y="110"/>
      <point x="418" y="117"/>
      <point x="406" y="117" type="curve" smooth="yes"/>
      <point x="400" y="117"/>
      <point x="392" y="115"/>
      <point x="383" y="103" type="curve" smooth="yes"/>
      <point x="370" y="85"/>
      <point x="325" y="35"/>
      <point x="290" y="35" type="curve" smooth="yes"/>
      <point x="277" y="35"/>
      <point x="266" y="49"/>
      <point x="266" y="81" type="curve" smooth="yes"/>
      <point x="266" y="86"/>
      <point x="266" y="91"/>
      <point x="267" y="97" type="curve" smooth="yes"/>
      <point x="275" y="182"/>
      <point x="311" y="272"/>
      <point x="319" y="299" type="curve" smooth="yes"/>
      <point x="320" y="300"/>
      <point x="320" y="302"/>
      <point x="320" y="303" type="curve" smooth="yes"/>
      <point x="320" y="312"/>
      <point x="309" y="320"/>
      <point x="296" y="320" type="curve" smooth="yes"/>
      <point x="283" y="320"/>
      <point x="273" y="315"/>
      <point x="267" y="296" type="curve" smooth="yes"/>
      <point x="225" y="161" type="line" smooth="yes"/>
      <point x="196" y="67"/>
      <point x="165" y="38"/>
      <point x="126" y="37" type="curve" smooth="yes"/>
      <point x="97" y="37"/>
      <point x="82" y="58"/>
      <point x="82" y="93" type="curve" smooth="yes"/>
      <point x="82" y="103" type="line" smooth="yes"/>
      <point x="87" y="189"/>
      <point x="106" y="232"/>
      <point x="133" y="300" type="curve" smooth="yes"/>
      <point x="134" y="302"/>
      <point x="134" y="303"/>
      <point x="134" y="305" type="curve" smooth="yes"/>
      <point x="134" y="315"/>
      <point x="124" y="322"/>
      <point x="111" y="322" type="curve" smooth="yes"/>
      <point x="97" y="322"/>
      <point x="88" y="314"/>
      <point x="83" y="303" type="curve" smooth="yes"/>
      <point x="53" y="237"/>
      <point x="39" y="178"/>
      <point x="32" y="111" type="curve" smooth="yes"/>
      <point x="31" y="104"/>
      <point x="31" y="97"/>
    </contour>
  </outline>
</glyph>
<glyph name="bar" format="1">
  <advance width="369"/>
  <unicode hex="007C"/>
  <outline>
    <contour>
      <point x="151" y="-69" type="line" smooth="yes"/>
      <point x="148" y="-83"/>
      <point x="160" y="-91"/>
      <point x="172" y="-91" type="curve" smooth="yes"/>
      <point x="181" y="-91"/>
      <point x="190" y="-86"/>
      <point x="192" y="-75" type="curve" smooth="yes"/>
      <point x="346" y="638" type="line" smooth="yes"/>
      <point x="347" y="641"/>
      <point x="347" y="644"/>
      <point x="347" y="647" type="curve" smooth="yes"/>
      <point x="347" y="661"/>
      <point x="339" y="669"/>
      <point x="329" y="669" type="curve" smooth="yes"/>
      <point x="320" y="669"/>
      <point x="309" y="661"/>
      <point x="305" y="643" type="curve" smooth="yes"/>
    </contour>
  </outline>
</glyph>
<glyph name="braceright" format="1">
  <advance width="426"/>
  <unicode hex="007D"/>
  <outline>
    <contour>
      <point x="167" y="583" type="curve" smooth="yes"/>
      <point x="177" y="583"/>
      <point x="186" y="584"/>
      <point x="194" y="584" type="curve" smooth="yes"/>
      <point x="277" y="584"/>
      <point x="288" y="555"/>
      <point x="288" y="497" type="curve" smooth="yes"/>
      <point x="288" y="445"/>
      <point x="273" y="390"/>
      <point x="273" y="338" type="curve" smooth="yes"/>
      <point x="273" y="290.775"/>
      <point x="303.17" y="264.192"/>
      <point x="345.825" y="254.716" type="curve"/>
      <point x="296.865" y="248.577"/>
      <point x="256.707" y="221.943"/>
      <point x="254" y="166" type="curve" smooth="yes"/>
      <point x="245" y="-5"/>
      <point x="235" y="-55"/>
      <point x="171" y="-62" type="curve" smooth="yes"/>
      <point x="166" y="-63"/>
      <point x="162" y="-63"/>
      <point x="157" y="-63" type="curve" smooth="yes"/>
      <point x="127" y="-63"/>
      <point x="100" y="-53"/>
      <point x="83" y="-47" type="curve" smooth="yes"/>
      <point x="81" y="-46"/>
      <point x="78" y="-46"/>
      <point x="76" y="-46" type="curve" smooth="yes"/>
      <point x="65" y="-46"/>
      <point x="60" y="-55"/>
      <point x="60" y="-63" type="curve" smooth="yes"/>
      <point x="60" y="-68"/>
      <point x="62" y="-74"/>
      <point x="67" y="-76" type="curve" smooth="yes"/>
      <point x="89" y="-90"/>
      <point x="128" y="-101"/>
      <point x="168" y="-101" type="curve" smooth="yes"/>
      <point x="181" y="-101" type="line" smooth="yes"/>
      <point x="269" y="-93"/>
      <point x="290" y="-25"/>
      <point x="300" y="146" type="curve" smooth="yes"/>
      <point x="303" y="199"/>
      <point x="319" y="226"/>
      <point x="379" y="226" type="curve" smooth="yes"/>
      <point x="385" y="226"/>
      <point x="392" y="225"/>
      <point x="399" y="225" type="curve" smooth="yes"/>
      <point x="416" y="225"/>
      <point x="424" y="233"/>
      <point x="424" y="254" type="curve" smooth="yes"/>
      <point x="424" y="267"/>
      <point x="418" y="276"/>
      <point x="407" y="278" type="curve" smooth="yes"/>
      <point x="332" y="285"/>
      <point x="321" y="306"/>
      <point x="321" y="347" type="curve" smooth="yes"/>
      <point x="321" y="405"/>
      <point x="335" y="456"/>
      <point x="335" y="504" type="curve" smooth="yes"/>
      <point x="335" y="581"/>
      <point x="303" y="622"/>
      <point x="210" y="622" type="curve" smooth="yes"/>
      <point x="195" y="622"/>
      <point x="180" y="621"/>
      <point x="162" y="619" type="curve" smooth="yes"/>
      <point x="154" y="618"/>
      <point x="151" y="611"/>
      <point x="151" y="603" type="curve" smooth="yes"/>
      <point x="151" y="593"/>
      <point x="156" y="583"/>
    </contour>
  </outline>
</glyph>
<glyph name="currency" format="1">
  <advance width="503"/>
  <unicode hex="00A4"/>
  <outline>
    <contour>
      <point x="238" y="200" type="curve" smooth="yes"/>
      <point x="180" y="200"/>
      <point x="151" y="242"/>
      <point x="151" y="308" type="curve" smooth="yes"/>
      <point x="151" y="396"/>
      <point x="197" y="482"/>
      <point x="287" y="482" type="curve" smooth="yes"/>
      <point x="332" y="482"/>
      <point x="358" y="449"/>
      <point x="358" y="399" type="curve" smooth="yes"/>
      <point x="358" y="395"/>
      <point x="357" y="390"/>
      <point x="357" y="385" type="curve" smooth="yes"/>
      <point x="357" y="305"/>
      <point x="323" y="200"/>
    </contour>
    <contour>
      <point x="141" y="186" type="curve"/>
      <point x="164" y="165"/>
      <point x="194" y="154"/>
      <point x="227" y="154" type="curve" smooth="yes"/>
      <point x="255" y="154"/>
      <point x="284" y="162"/>
      <point x="308" y="175" type="curve"/>
      <point x="326" y="163"/>
      <point x="355" y="119"/>
      <point x="382" y="119" type="curve" smooth="yes"/>
      <point x="393" y="119"/>
      <point x="406" y="132"/>
      <point x="406" y="144" type="curve" smooth="yes"/>
      <point x="405" y="148"/>
      <point x="400" y="156"/>
      <point x="389" y="167" type="curve" smooth="yes"/>
      <point x="348" y="205" type="line"/>
      <point x="392" y="249"/>
      <point x="418" y="322"/>
      <point x="418" y="390" type="curve" smooth="yes"/>
      <point x="418" y="419"/>
      <point x="414" y="444"/>
      <point x="403" y="464" type="curve"/>
      <point x="450" y="496" type="line" smooth="yes"/>
      <point x="463" y="504"/>
      <point x="472" y="511"/>
      <point x="472" y="522" type="curve" smooth="yes"/>
      <point x="472" y="533"/>
      <point x="463" y="543"/>
      <point x="454" y="543" type="curve" smooth="yes"/>
      <point x="428" y="543"/>
      <point x="397" y="510"/>
      <point x="376" y="498" type="curve"/>
      <point x="353" y="518"/>
      <point x="321" y="527"/>
      <point x="287" y="527" type="curve" smooth="yes"/>
      <point x="253" y="527"/>
      <point x="220" y="519"/>
      <point x="193" y="502" type="curve"/>
      <point x="146" y="543" type="line" smooth="yes"/>
      <point x="137" y="552"/>
      <point x="128" y="556"/>
      <point x="123" y="556" type="curve" smooth="yes"/>
      <point x="112" y="556"/>
      <point x="99" y="542"/>
      <point x="99" y="531" type="curve" smooth="yes"/>
      <point x="99" y="521"/>
      <point x="105" y="516"/>
      <point x="115" y="507" type="curve" smooth="yes"/>
      <point x="155" y="471" type="line"/>
      <point x="117" y="429"/>
      <point x="96" y="359"/>
      <point x="96" y="300" type="curve" smooth="yes"/>
      <point x="96" y="269"/>
      <point x="102" y="240"/>
      <point x="114" y="219" type="curve"/>
      <point x="54" y="178" type="line" smooth="yes"/>
      <point x="41" y="168"/>
      <point x="32" y="163"/>
      <point x="32" y="152" type="curve" smooth="yes"/>
      <point x="32" y="141"/>
      <point x="41" y="130"/>
      <point x="50" y="130" type="curve" smooth="yes"/>
      <point x="55" y="130"/>
      <point x="63" y="134"/>
      <point x="73" y="140" type="curve" smooth="yes"/>
      <point x="94" y="151"/>
      <point x="121" y="171"/>
    </contour>
  </outline>
</glyph>
<glyph name="brokenbar" format="1">
  <advance width="350"/>
  <unicode hex="00A6"/>
  <outline>
    <contour>
      <point x="210" y="333" type="curve" smooth="yes"/>
      <point x="230" y="333"/>
      <point x="238" y="350"/>
      <point x="241" y="373" type="curve" smooth="yes"/>
      <point x="249" y="436"/>
      <point x="266" y="503"/>
      <point x="266" y="570" type="curve" smooth="yes"/>
      <point x="266" y="598"/>
      <point x="257" y="624"/>
      <point x="236" y="624" type="curve" smooth="yes"/>
      <point x="221" y="624"/>
      <point x="211" y="608"/>
      <point x="207" y="588" type="curve" smooth="yes"/>
      <point x="190" y="518"/>
      <point x="175" y="388"/>
      <point x="175" y="375" type="curve" smooth="yes"/>
      <point x="175" y="352"/>
      <point x="189" y="333"/>
    </contour>
    <contour>
      <point x="157" y="-45" type="curve" smooth="yes"/>
      <point x="174" y="-45"/>
      <point x="180" y="-38"/>
      <point x="183" y="-20" type="curve" smooth="yes"/>
      <point x="190" y="23"/>
      <point x="213" y="62"/>
      <point x="213" y="200" type="curve" smooth="yes"/>
      <point x="213" y="226"/>
      <point x="203" y="246"/>
      <point x="182" y="246" type="curve" smooth="yes"/>
      <point x="162" y="246"/>
      <point x="150" y="228"/>
      <point x="147" y="207" type="curve" smooth="yes"/>
      <point x="136" y="133"/>
      <point x="116" y="73"/>
      <point x="116" y="0" type="curve" smooth="yes"/>
      <point x="116" y="-37"/>
      <point x="128" y="-45"/>
    </contour>
  </outline>
</glyph>
<glyph name="copyright" format="1">
  <advance width="612"/>
  <unicode hex="00A9"/>
  <outline>
    <contour>
      <point x="290" y="10" type="curve" smooth="yes"/>
      <point x="416" y="10"/>
      <point x="566" y="103"/>
      <point x="566" y="292" type="curve" smooth="yes"/>
      <point x="566" y="426"/>
      <point x="482" y="500"/>
      <point x="346" y="500" type="curve" smooth="yes"/>
      <point x="173" y="500"/>
      <point x="36" y="397"/>
      <point x="36" y="227" type="curve" smooth="yes"/>
      <point x="36" y="86"/>
      <point x="144" y="10"/>
    </contour>
    <contour>
      <point x="291" y="50" type="curve" smooth="yes"/>
      <point x="174" y="50"/>
      <point x="85" y="106"/>
      <point x="85" y="223" type="curve" smooth="yes"/>
      <point x="85" y="363"/>
      <point x="190" y="460"/>
      <point x="333" y="460" type="curve" smooth="yes"/>
      <point x="445" y="460"/>
      <point x="518" y="402"/>
      <point x="518" y="291" type="curve" smooth="yes"/>
      <point x="518" y="155"/>
      <point x="429" y="50"/>
    </contour>
    <contour>
      <point x="288" y="115" type="curve" smooth="yes"/>
      <point x="333" y="115"/>
      <point x="369" y="136"/>
      <point x="397" y="156" type="curve" smooth="yes"/>
      <point x="400" y="159"/>
      <point x="403" y="162"/>
      <point x="403" y="168" type="curve" smooth="yes"/>
      <point x="403" y="183"/>
      <point x="396" y="192"/>
      <point x="390" y="192" type="curve" smooth="yes"/>
      <point x="388" y="192" type="line" smooth="yes"/>
      <point x="368" y="180"/>
      <point x="337" y="160"/>
      <point x="305" y="160" type="curve" smooth="yes"/>
      <point x="262" y="160"/>
      <point x="247" y="196"/>
      <point x="247" y="234" type="curve" smooth="yes"/>
      <point x="247" y="284"/>
      <point x="263" y="354"/>
      <point x="319" y="354" type="curve" smooth="yes"/>
      <point x="333" y="354"/>
      <point x="336" y="342"/>
      <point x="336" y="329" type="curve" smooth="yes"/>
      <point x="336" y="318"/>
      <point x="334" y="305"/>
      <point x="334" y="299" type="curve" smooth="yes"/>
      <point x="334" y="285"/>
      <point x="337" y="282"/>
      <point x="349" y="282" type="curve" smooth="yes"/>
      <point x="372" y="282"/>
      <point x="386" y="309"/>
      <point x="386" y="336" type="curve" smooth="yes"/>
      <point x="386" y="375"/>
      <point x="354" y="398"/>
      <point x="313" y="398" type="curve" smooth="yes"/>
      <point x="239" y="398"/>
      <point x="185" y="319"/>
      <point x="185" y="228" type="curve" smooth="yes"/>
      <point x="185" y="167"/>
      <point x="213" y="115"/>
    </contour>
  </outline>
</glyph>
<glyph name="onehalf" format="1">
  <advance width="967"/>
  <unicode hex="00BD"/>
  <outline>
    <contour>
      <point x="171" y="215" type="curve" smooth="yes"/>
      <point x="202" y="375"/>
      <point x="249" y="622"/>
      <point x="255" y="653" type="curve" smooth="yes"/>
      <point x="256" y="660"/>
      <point x="257" y="666"/>
      <point x="257" y="672" type="curve" smooth="yes"/>
      <point x="257" y="687"/>
      <point x="253" y="697"/>
      <point x="241" y="697" type="curve" smooth="yes"/>
      <point x="236" y="697" type="line" smooth="yes"/>
      <point x="201" y="690"/>
      <point x="157" y="676"/>
      <point x="129" y="667" type="curve" smooth="yes"/>
      <point x="118" y="664"/>
      <point x="113" y="653"/>
      <point x="113" y="642" type="curve" smooth="yes"/>
      <point x="113" y="631"/>
      <point x="118" y="619"/>
      <point x="129" y="619" type="curve" smooth="yes"/>
      <point x="131" y="619"/>
      <point x="132" y="620"/>
      <point x="134" y="620" type="curve" smooth="yes"/>
      <point x="147" y="624"/>
      <point x="186" y="634"/>
      <point x="202" y="640" type="curve"/>
      <point x="171" y="479"/>
      <point x="167" y="447"/>
      <point x="121" y="228" type="curve" smooth="yes"/>
      <point x="121" y="226"/>
      <point x="120" y="224"/>
      <point x="120" y="222" type="curve" smooth="yes"/>
      <point x="120" y="208"/>
      <point x="133" y="202"/>
      <point x="146" y="202" type="curve" smooth="yes"/>
      <point x="158" y="202"/>
      <point x="169" y="207"/>
    </contour>
    <contour>
      <point x="324" y="5" type="curve" smooth="yes"/>
      <point x="574" y="564" type="line" smooth="yes"/>
      <point x="576" y="569"/>
      <point x="577" y="574"/>
      <point x="577" y="579" type="curve" smooth="yes"/>
      <point x="577" y="594"/>
      <point x="567" y="605"/>
      <point x="555" y="605" type="curve" smooth="yes"/>
      <point x="546" y="605"/>
      <point x="535" y="598"/>
      <point x="527" y="580" type="curve" smooth="yes"/>
      <point x="275" y="28" type="line" smooth="yes"/>
      <point x="271" y="20"/>
      <point x="270" y="13"/>
      <point x="270" y="7" type="curve" smooth="yes"/>
      <point x="270" y="-9"/>
      <point x="281" y="-17"/>
      <point x="293" y="-17" type="curve" smooth="yes"/>
      <point x="305" y="-17"/>
      <point x="317" y="-10"/>
    </contour>
    <contour>
      <point x="675" y="36" type="curve" smooth="yes"/>
      <point x="640" y="36"/>
      <point x="628" y="66"/>
      <point x="628" y="85" type="curve" smooth="yes"/>
      <point x="628" y="102"/>
      <point x="639" y="120"/>
      <point x="661" y="120" type="curve" smooth="yes"/>
      <point x="699" y="120"/>
      <point x="729" y="92"/>
      <point x="751" y="78" type="curve"/>
      <point x="734" y="53"/>
      <point x="702" y="36"/>
    </contour>
    <contour>
      <point x="771" y="449" type="curve" smooth="yes"/>
      <point x="838" y="449"/>
      <point x="863" y="392"/>
      <point x="863" y="329" type="curve" smooth="yes"/>
      <point x="863" y="235"/>
      <point x="818" y="150"/>
      <point x="779" y="109" type="curve"/>
      <point x="749" y="129"/>
      <point x="704" y="164"/>
      <point x="657" y="164" type="curve" smooth="yes"/>
      <point x="611" y="164"/>
      <point x="583" y="128"/>
      <point x="583" y="84" type="curve" smooth="yes"/>
      <point x="583" y="35"/>
      <point x="625" y="-3"/>
      <point x="677" y="-3" type="curve" smooth="yes"/>
      <point x="719" y="-3"/>
      <point x="753" y="25"/>
      <point x="782" y="50" type="curve"/>
      <point x="807" y="30"/>
      <point x="832" y="0"/>
      <point x="869" y="0" type="curve" smooth="yes"/>
      <point x="906" y="0"/>
      <point x="918" y="33"/>
      <point x="918" y="65" type="curve" smooth="yes"/>
      <point x="918" y="75"/>
      <point x="911" y="75"/>
      <point x="910" y="73" type="curve" smooth="yes"/>
      <point x="905" y="66"/>
      <point x="892" y="50"/>
      <point x="879" y="50" type="curve" smooth="yes"/>
      <point x="848" y="50"/>
      <point x="830" y="68"/>
      <point x="810" y="81" type="curve"/>
      <point x="857" y="132"/>
      <point x="915" y="227"/>
      <point x="915" y="347" type="curve" smooth="yes"/>
      <point x="915" y="442"/>
      <point x="849" y="495"/>
      <point x="772" y="495" type="curve" smooth="yes"/>
      <point x="701" y="495"/>
      <point x="627" y="462"/>
      <point x="627" y="392" type="curve" smooth="yes"/>
      <point x="627" y="357"/>
      <point x="649" y="327"/>
      <point x="671" y="327" type="curve" smooth="yes"/>
      <point x="683" y="327"/>
      <point x="692" y="335"/>
      <point x="692" y="343" type="curve" smooth="yes"/>
      <point x="692" y="357"/>
      <point x="675" y="377"/>
      <point x="675" y="396" type="curve" smooth="yes"/>
      <point x="675" y="436"/>
      <point x="720" y="449"/>
    </contour>
  </outline>
</glyph>
<glyph name="divide" format="1">
  <advance width="381"/>
  <unicode hex="00F7"/>
  <outline>
    <contour>
      <point x="255" y="305" type="curve" smooth="yes"/>
      <point x="279" y="305"/>
      <point x="293" y="321"/>
      <point x="293" y="344" type="curve" smooth="yes"/>
      <point x="293" y="366"/>
      <point x="282" y="377"/>
      <point x="259" y="377" type="curve" smooth="yes"/>
      <point x="235" y="377"/>
      <point x="222" y="361"/>
      <point x="222" y="338" type="curve" smooth="yes"/>
      <point x="222" y="316"/>
      <point x="233" y="305"/>
    </contour>
    <contour>
      <point x="217" y="58" type="curve" smooth="yes"/>
      <point x="242" y="58"/>
      <point x="256" y="74"/>
      <point x="256" y="98" type="curve" smooth="yes"/>
      <point x="256" y="119"/>
      <point x="244" y="130"/>
      <point x="221" y="130" type="curve" smooth="yes"/>
      <point x="197" y="130"/>
      <point x="184" y="115"/>
      <point x="184" y="91" type="curve" smooth="yes"/>
      <point x="184" y="70"/>
      <point x="196" y="58"/>
    </contour>
    <contour>
      <point x="124" y="197" type="curve" smooth="yes"/>
      <point x="349" y="197" type="line" smooth="yes"/>
      <point x="365" y="197"/>
      <point x="373" y="206"/>
      <point x="373" y="223" type="curve" smooth="yes"/>
      <point x="373" y="233"/>
      <point x="364" y="239"/>
      <point x="352" y="239" type="curve" smooth="yes"/>
      <point x="127" y="239" type="line" smooth="yes"/>
      <point x="111" y="239"/>
      <point x="97" y="232"/>
      <point x="97" y="217" type="curve" smooth="yes"/>
      <point x="97" y="203"/>
      <point x="109" y="197"/>
    </contour>
  </outline>
</glyph>
<glyph name="oslash" format="1">
  <advance width="306"/>
  <unicode hex="00F8"/>
  <outline>
    <component base="o"/>
    <contour>
      <point x="23" y="-31" type="curve" smooth="yes"/>
      <point x="122" y="106"/>
      <point x="229" y="243"/>
      <point x="401" y="361" type="curve" smooth="yes"/>
      <point x="408" y="366"/>
      <point x="411" y="372"/>
      <point x="411" y="378" type="curve" smooth="yes"/>
      <point x="411" y="385"/>
      <point x="406" y="392"/>
      <point x="397" y="392" type="curve" smooth="yes"/>
      <point x="392" y="392"/>
      <point x="385" y="389"/>
      <point x="377" y="384" type="curve" smooth="yes"/>
      <point x="210" y="267"/>
      <point x="108" y="119"/>
      <point x="12" y="-14" type="curve" smooth="yes"/>
      <point x="6" y="-22"/>
      <point x="3" y="-29"/>
      <point x="3" y="-33" type="curve" smooth="yes"/>
      <point x="3" y="-38"/>
      <point x="6" y="-40"/>
      <point x="10" y="-40" type="curve" smooth="yes"/>
      <point x="14" y="-40"/>
      <point x="19" y="-37"/>
    </contour>
  </outline>
</glyph>
<glyph name="Hbar" format="1">
  <advance width="678"/>
  <unicode hex="0126"/>
  <outline>
    <component base="H"/>
    <contour>
      <point x="90" y="402" type="line"/>
      <point x="604" y="426" type="line" smooth="yes"/>
      <point x="616" y="426"/>
      <point x="622" y="435"/>
      <point x="622" y="444" type="curve" smooth="yes"/>
      <point x="622" y="453"/>
      <point x="616" y="461"/>
      <point x="606" y="461" type="curve" smooth="yes"/>
      <point x="605" y="461" type="line"/>
      <point x="89" y="434" type="line" smooth="yes"/>
      <point x="78" y="433"/>
      <point x="74" y="427"/>
      <point x="74" y="420" type="curve" smooth="yes"/>
      <point x="74" y="411"/>
      <point x="80" y="402"/>
      <point x="89" y="402" type="curve" smooth="yes"/>
    </contour>
  </outline>
</glyph>
<glyph name="IJ" format="1">
  <advance width="816"/>
  <unicode hex="0132"/>
  <outline>
    <contour>
      <point x="11" y="2" type="curve" smooth="yes"/>
      <point x="11" y="-14"/>
      <point x="18" y="-24"/>
      <point x="32" y="-24" type="curve" smooth="yes"/>
      <point x="67" y="-24"/>
      <point x="210" y="-8"/>
      <point x="301" y="-4" type="curve" smooth="yes"/>
      <point x="317" y="-3"/>
      <point x="324" y="7"/>
      <point x="324" y="18" type="curve" smooth="yes"/>
      <point x="324" y="30"/>
      <point x="316" y="43"/>
      <point x="304" y="43" type="curve" smooth="yes"/>
      <point x="196" y="39" type="line"/>
      <point x="223" y="170"/>
      <point x="320" y="500"/>
      <point x="352" y="613" type="curve"/>
      <point x="362" y="614"/>
      <point x="378" y="615"/>
      <point x="396" y="617" type="curve" smooth="yes"/>
      <point x="577" y="617"/>
      <point x="655" y="609"/>
      <point x="786" y="604" type="curve"/>
      <point x="751" y="427"/>
      <point x="629" y="-100"/>
      <point x="497" y="-100" type="curve" smooth="yes"/>
      <point x="453" y="-100"/>
      <point x="438" y="-38"/>
      <point x="432" y="13" type="curve" smooth="yes"/>
      <point x="430" y="26"/>
      <point x="419" y="33"/>
      <point x="408" y="33" type="curve" smooth="yes"/>
      <point x="398" y="33"/>
      <point x="388" y="26"/>
      <point x="388" y="12" type="curve" smooth="yes"/>
      <point x="388" y="-82"/>
      <point x="429" y="-148"/>
      <point x="504" y="-148" type="curve" smooth="yes"/>
      <point x="509" y="-148"/>
      <point x="513" y="-147"/>
      <point x="518" y="-147" type="curve" smooth="yes"/>
      <point x="664" y="-135"/>
      <point x="790" y="299"/>
      <point x="831" y="602" type="curve"/>
      <point x="865" y="600"/>
      <point x="898" y="600"/>
      <point x="936" y="600" type="curve" smooth="yes"/>
      <point x="1005" y="600"/>
      <point x="1009" y="609"/>
      <point x="1009" y="626" type="curve" smooth="yes"/>
      <point x="1009" y="640"/>
      <point x="999" y="651"/>
      <point x="988" y="651" type="curve" smooth="yes"/>
      <point x="985" y="651" type="line" smooth="yes"/>
      <point x="942" y="651"/>
      <point x="891" y="652"/>
      <point x="836" y="654" type="curve"/>
      <point x="835" y="664"/>
      <point x="831" y="667"/>
      <point x="821" y="667" type="curve" smooth="yes"/>
      <point x="808" y="667"/>
      <point x="802" y="667"/>
      <point x="798" y="656" type="curve"/>
      <point x="691" y="661"/>
      <point x="581" y="667"/>
      <point x="506" y="667" type="curve" smooth="yes"/>
      <point x="474" y="668"/>
      <point x="445" y="668"/>
      <point x="418" y="668" type="curve" smooth="yes"/>
      <point x="247" y="668"/>
      <point x="176" y="655"/>
      <point x="154" y="645" type="curve" smooth="yes"/>
      <point x="149" y="642"/>
      <point x="146" y="634"/>
      <point x="146" y="625" type="curve" smooth="yes"/>
      <point x="146" y="612"/>
      <point x="151" y="598"/>
      <point x="158" y="598" type="curve" smooth="yes"/>
      <point x="159" y="598" type="line"/>
      <point x="209" y="607"/>
      <point x="282" y="607"/>
      <point x="299" y="610" type="curve"/>
      <point x="236" y="444"/>
      <point x="177" y="213"/>
      <point x="138" y="35" type="curve"/>
      <point x="120" y="34"/>
      <point x="18" y="32"/>
      <point x="13" y="13" type="curve" smooth="yes"/>
      <point x="12" y="9"/>
      <point x="11" y="6"/>
    </contour>
  </outline>
</glyph>
<glyph name="Lslash" format="1">
  <advance width="622"/>
  <unicode hex="0141"/>
  <outline>
    <component base="L"/>
    <contour>
      <point x="558" y="236" type="line" smooth="yes"/>
      <point x="568" y="239"/>
      <point x="571" y="246"/>
      <point x="571" y="254" type="curve" smooth="yes"/>
      <point x="571" y="264"/>
      <point x="564" y="272"/>
      <point x="553" y="272" type="curve" smooth="yes"/>
      <point x="550" y="272"/>
      <point x="547" y="271"/>
      <point x="543" y="270" type="curve" smooth="yes"/>
      <point x="315" y="191" type="line" smooth="yes"/>
      <point x="307" y="188"/>
      <point x="304" y="180"/>
      <point x="304" y="174" type="curve" smooth="yes"/>
      <point x="304" y="165"/>
      <point x="311" y="156"/>
      <point x="321" y="156" type="curve" smooth="yes"/>
      <point x="322" y="156"/>
      <point x="326" y="157"/>
      <point x="331" y="159" type="curve" smooth="yes"/>
    </contour>
  </outline>
</glyph>
<glyph name="breve" format="1">
  <advance width="205"/>
  <unicode hex="02D8"/>
  <outline>
    <contour>
      <point x="84" y="333" type="move" name="_top"/>
    </contour>
    <contour>
      <point x="21" y="513" type="curve" smooth="yes"/>
      <point x="21" y="466"/>
      <point x="52" y="433"/>
      <point x="104" y="433" type="curve" smooth="yes"/>
      <point x="155" y="433"/>
      <point x="210" y="463"/>
      <point x="210" y="523" type="curve" smooth="yes"/>
      <point x="210" y="531"/>
      <point x="202" y="535"/>
      <point x="194" y="535" type="curve" smooth="yes"/>
      <point x="185" y="535"/>
      <point x="175" y="531"/>
      <point x="174" y="523" type="curve" smooth="yes"/>
      <point x="169" y="484"/>
      <point x="137" y="465"/>
      <point x="108" y="465" type="curve" smooth="yes"/>
      <point x="82" y="465"/>
      <point x="58" y="481"/>
      <point x="58" y="511" type="curve" smooth="yes"/>
      <point x="58" y="515"/>
      <point x="59" y="519"/>
      <point x="59" y="523" type="curve" smooth="yes"/>
      <point x="59" y="534"/>
      <point x="49" y="539"/>
      <point x="40" y="539" type="curve" smooth="yes"/>
      <point x="25" y="539"/>
      <point x="21" y="529"/>
    </contour>
  </outline>
</glyph>
<glyph name="quotedblbase" format="1">
  <advance width="350"/>
  <unicode hex="201E"/>
  <outline>
    <contour>
      <point x="259" y="-65" type="curve" smooth="yes"/>
      <point x="294" y="-65"/>
      <point x="310" y="-26"/>
      <point x="325" y="-3" type="curve" smooth="yes"/>
      <point x="340" y="21" type="line" smooth="yes"/>
      <point x="349" y="35"/>
      <point x="363" y="49"/>
      <point x="363" y="70" type="curve" smooth="yes"/>
      <point x="363" y="97"/>
      <point x="336" y="110"/>
      <point x="310" y="110" type="curve" smooth="yes"/>
      <point x="286" y="110"/>
      <point x="268" y="100"/>
      <point x="263" y="81" type="curve" smooth="yes"/>
      <point x="252" y="44"/>
      <point x="232" y="3"/>
      <point x="232" y="-37" type="curve" smooth="yes"/>
      <point x="232" y="-54"/>
      <point x="243" y="-65"/>
    </contour>
    <contour>
      <point x="126" y="-65" type="curve" smooth="yes"/>
      <point x="161" y="-65"/>
      <point x="176" y="-26"/>
      <point x="191" y="-3" type="curve" smooth="yes"/>
      <point x="198" y="9"/>
      <point x="199" y="9"/>
      <point x="207" y="21" type="curve" smooth="yes"/>
      <point x="216" y="35"/>
      <point x="229" y="49"/>
      <point x="229" y="70" type="curve" smooth="yes"/>
      <point x="229" y="97"/>
      <point x="203" y="110"/>
      <point x="176" y="110" type="curve" smooth="yes"/>
      <point x="152" y="110"/>
      <point x="134" y="100"/>
      <point x="129" y="81" type="curve" smooth="yes"/>
      <point x="119" y="44"/>
      <point x="98" y="3"/>
      <point x="98" y="-37" type="curve" smooth="yes"/>
      <point x="98" y="-54"/>
      <point x="110" y="-65"/>
    </contour>
  </outline>
</glyph>
<glyph name="product" format="1">
  <advance width="783"/>
  <unicode hex="220F"/>
  <outline>
    <contour>
      <point x="573" y="-3" type="curve" smooth="yes"/>
      <point x="573" y="-33"/>
      <point x="574" y="-56"/>
      <point x="596" y="-56" type="curve" smooth="yes"/>
      <point x="606" y="-56"/>
      <point x="616" y="-49"/>
      <point x="619" y="-33" type="curve" smooth="yes"/>
      <point x="625" y="3"/>
      <point x="617" y="169"/>
      <point x="700" y="561" type="curve"/>
      <point x="721" y="561" type="line" smooth="yes"/>
      <point x="759" y="561"/>
      <point x="825" y="562"/>
      <point x="847" y="564" type="curve" smooth="yes"/>
      <point x="852" y="565"/>
      <point x="858" y="579"/>
      <point x="858" y="592" type="curve" smooth="yes"/>
      <point x="858" y="602"/>
      <point x="854" y="610"/>
      <point x="844" y="610" type="curve" smooth="yes"/>
      <point x="629" y="610"/>
      <point x="491" y="616"/>
      <point x="375" y="616" type="curve" smooth="yes"/>
      <point x="293" y="616"/>
      <point x="224" y="613"/>
      <point x="147" y="603" type="curve" smooth="yes"/>
      <point x="138" y="602"/>
      <point x="134" y="591"/>
      <point x="134" y="580" type="curve" smooth="yes"/>
      <point x="134" y="568"/>
      <point x="139" y="557"/>
      <point x="146" y="557" type="curve" smooth="yes"/>
      <point x="147" y="557" type="line"/>
      <point x="193" y="565"/>
      <point x="215" y="569"/>
      <point x="307" y="569" type="curve" smooth="yes"/>
      <point x="340" y="569" type="line"/>
      <point x="230" y="235"/>
      <point x="187" y="21"/>
      <point x="187" y="-28" type="curve" smooth="yes"/>
      <point x="187" y="-45"/>
      <point x="198" y="-56"/>
      <point x="210" y="-56" type="curve" smooth="yes"/>
      <point x="220" y="-56"/>
      <point x="230" y="-49"/>
      <point x="233" y="-33" type="curve" smooth="yes"/>
      <point x="239" y="6"/>
      <point x="278" y="192"/>
      <point x="375" y="569" type="curve"/>
      <point x="449" y="569"/>
      <point x="609" y="563"/>
      <point x="665" y="563" type="curve"/>
      <point x="590" y="259"/>
      <point x="573" y="71"/>
    </contour>
  </outline>
</glyph>
<glyph name="summation" format="1">
  <advance width="698"/>
  <unicode hex="2211"/>
  <outline>
    <contour>
      <point x="362" y="640" type="curve" smooth="yes"/>
      <point x="272" y="640"/>
      <point x="215" y="630"/>
      <point x="158" y="609" type="curve" smooth="yes"/>
      <point x="148" y="605"/>
      <point x="144" y="597"/>
      <point x="144" y="588" type="curve" smooth="yes"/>
      <point x="144" y="577"/>
      <point x="152" y="565"/>
      <point x="165" y="565" type="curve" smooth="yes"/>
      <point x="168" y="565"/>
      <point x="171" y="566"/>
      <point x="174" y="567" type="curve" smooth="yes"/>
      <point x="194" y="575"/>
      <point x="218" y="581"/>
      <point x="246" y="585" type="curve"/>
      <point x="407" y="314" type="line"/>
      <point x="221" y="148"/>
      <point x="101" y="54"/>
      <point x="101" y="24" type="curve" smooth="yes"/>
      <point x="101" y="14"/>
      <point x="109" y="7"/>
      <point x="119" y="7" type="curve" smooth="yes"/>
      <point x="131" y="7"/>
      <point x="148" y="16"/>
      <point x="168" y="40" type="curve"/>
      <point x="260" y="9"/>
      <point x="355" y="-26"/>
      <point x="463" y="-26" type="curve" smooth="yes"/>
      <point x="529" y="-26"/>
      <point x="599" y="-13"/>
      <point x="678" y="22" type="curve" smooth="yes"/>
      <point x="683" y="24"/>
      <point x="685" y="29"/>
      <point x="685" y="35" type="curve" smooth="yes"/>
      <point x="685" y="47"/>
      <point x="676" y="64"/>
      <point x="667" y="64" type="curve" smooth="yes"/>
      <point x="666" y="64"/>
      <point x="665" y="63"/>
      <point x="664" y="63" type="curve" smooth="yes"/>
      <point x="603" y="38"/>
      <point x="543" y="18"/>
      <point x="467" y="18" type="curve" smooth="yes"/>
      <point x="396" y="18"/>
      <point x="311" y="35"/>
      <point x="198" y="80" type="curve"/>
      <point x="263" y="148"/>
      <point x="359" y="213"/>
      <point x="462" y="306" type="curve"/>
      <point x="295" y="590" type="line"/>
      <point x="319" y="592"/>
      <point x="347" y="593"/>
      <point x="376" y="593" type="curve" smooth="yes"/>
      <point x="441" y="593"/>
      <point x="545" y="589"/>
      <point x="615" y="589" type="curve" smooth="yes"/>
      <point x="635" y="589" type="line" smooth="yes"/>
      <point x="703" y="591"/>
      <point x="708" y="599"/>
      <point x="708" y="613" type="curve" smooth="yes"/>
      <point x="708" y="628"/>
      <point x="697" y="641"/>
      <point x="685" y="641" type="curve" smooth="yes"/>
      <point x="684" y="641" type="line"/>
      <point x="638" y="637"/>
      <point x="599" y="636"/>
      <point x="563" y="636" type="curve" smooth="yes"/>
      <point x="497" y="636"/>
      <point x="440" y="640"/>
    </contour>
  </outline>
</glyph>
<glyph name="greaterequal" format="1">
  <advance width="545"/>
  <unicode hex="2265"/>
  <outline>
    <component base="greater" xOffset="89" yOffset="58"/>
    <contour>
      <point x="266" y="44" type="curve" smooth="yes"/>
      <point x="242" y="44"/>
      <point x="214" y="46"/>
      <point x="186" y="46" type="curve" smooth="yes"/>
      <point x="159" y="46"/>
      <point x="135" y="42"/>
      <point x="135" y="27" type="curve" smooth="yes"/>
      <point x="135" y="6"/>
      <point x="147" y="-1"/>
      <point x="175" y="-1" type="curve" smooth="yes"/>
      <point x="393" y="-1" type="line" smooth="yes"/>
      <point x="447" y="-1"/>
      <point x="472" y="7"/>
      <point x="472" y="37" type="curve" smooth="yes"/>
      <point x="472" y="44"/>
      <point x="469" y="46"/>
      <point x="458" y="46" type="curve" smooth="yes"/>
      <point x="363" y="46" type="line" smooth="yes"/>
      <point x="341" y="46"/>
      <point x="308" y="44"/>
    </contour>
  </outline>
</glyph>
